g Cap
v 0.1145637 0.1107364 -0.01798641
v 0.1149129 0.1381923 -9.716002E-07
v 0.1171161 0.1129716 -9.682863E-07
v 0.1138078 0.1375708 -0.0177756
v 0.1129176 0.1641011 -9.546734E-07
v 0.1043146 0.1269351 -0.04265144
v 0.1083864 0.09930924 -0.04218772
v 0.09440948 0.08017823 -0.06023789
v 0.1115558 0.1637186 -0.01859301
v 0.1093608 0.1941725 -0.01866488
v 0.111095 0.1950033 -9.449196E-07
v 0.09897461 0.187446 -0.04582806
v 0.1018773 0.1539485 -0.04268146
v 0.08571487 0.1413278 -0.05820765
v 0.08186096 0.1758218 -0.05914967
v 0.06382721 0.1611902 -0.06567243
v 0.08859741 0.11388 -0.05763602
v 0.07045166 0.09760895 -0.06733855
v 0.07869827 0.05685837 -0.06975717
v 0.06673554 0.1291492 -0.06800792
v 0.05578323 0.1376904 -0.07096604
v 0.05197479 0.1179091 -0.07191107
v 0.05337814 0.08054154 -0.07329354
v 0.0658078 0.03262055 -0.07735626
v 0.1193928 0.1128358 -0.01980168
v 0.1209875 0.1147262 -9.761783E-07
v 0.1191421 0.1374896 -9.673355E-07
v 0.117511 0.1352353 -0.02084241
v 0.1176363 0.1648099 -9.64772E-07
v 0.1085925 0.1264961 -0.04346196
v 0.1114523 0.1017596 -0.04431098
v 0.09593964 0.08208181 -0.06381793
v 0.1156978 0.162729 -0.0218791
v 0.1121829 0.194352 -0.01935478
v 0.1140227 0.1951968 -9.667259E-07
v 0.1012883 0.187559 -0.04751055
v 0.1053372 0.1552213 -0.04506481
v 0.08845749 0.1432686 -0.06094102
v 0.08336197 0.1759367 -0.06163491
v 0.06481536 0.161356 -0.06843962
v 0.09176102 0.1119064 -0.05984485
v 0.0736235 0.09516282 -0.06980879
v 0.07912353 0.0578488 -0.07406066
v 0.07022171 0.1294716 -0.06956833
v 0.05666824 0.1378525 -0.07377026
v 0.05281723 0.1180345 -0.0747297
v 0.05409851 0.08071382 -0.07614157
v 0.06593231 0.0329848 -0.08189802
v 0.1834608 0.04151043 -0.03168713
v 0.1914966 0.004976596 -1.045309E-06
v 0.1872887 0.04227366 -1.044015E-06
v 0.1873955 0.005426827 -0.0325867
v 0.1845279 -0.03570211 -1.064029E-06
v 0.1710902 0.007746582 -0.05675619
v 0.1687712 0.03764664 -0.05626627
v 0.1791222 -0.03278869 -0.03185796
v 0.1621271 -0.06690221 -1.082545E-06
v 0.1589529 -0.06647553 -0.02736227
v 0.1306041 -0.08851373 -1.05242E-06
v 0.1499126 0.01267968 -0.07176817
v 0.1539104 0.03334292 -0.06914299
v 0.1380618 0.04750567 -0.07131243
v 0.1631604 -0.02468923 -0.05732197
v 0.1277499 -0.08715446 -0.02546427
v 0.09545624 -0.09788784 -1.020523E-06
v 0.1426807 -0.01477782 -0.07421353
v 0.1257289 0.02481751 -0.07977437
v 0.1150163 0.06475942 -0.07027804
v 0.1477933 -0.05529923 -0.05569521
v 0.09474014 -0.09425136 -0.02638786
v 0.06019287 -0.09484632 -9.857092E-07
v 0.09792785 0.03963006 -0.07965432
v 0.09593964 0.08208181 -0.06381793
v 0.07912353 0.0578488 -0.07406066
v 0.1151758 -0.001927035 -0.08502427
v 0.0859578 0.01407058 -0.08535131
v 0.06593231 0.0329848 -0.08189802
v 0.07738663 -0.01865895 -0.08368572
v 0.0520256 -0.005867445 -0.08294722
v 0.1294542 -0.04126766 -0.07268132
v 0.1050125 -0.03084074 -0.0818131
v 0.06791351 -0.05365199 -0.07189617
v 0.04094467 -0.04722161 -0.07252078
v 0.1179356 -0.06035148 -0.06813324
v 0.09640548 -0.05955521 -0.07150368
v 0.06269592 -0.07772582 -0.05206013
v 0.03265304 -0.07501736 -0.04999593
v 0.124512 -0.07565146 -0.05223218
v 0.09455337 -0.08097781 -0.05259686
v 0.06044906 -0.09109595 -0.02584595
v 0.03024277 -0.08458563 -0.02238955
v 0.03001892 -0.08760606 -9.731133E-07
v 0.1114523 0.1017596 -0.04431098
v 0.09593964 0.08208181 -0.06381793
v 0.1150163 0.06475942 -0.07027804
v 0.1331926 0.08478485 -0.05234222
v 0.1193928 0.1128358 -0.01980168
v 0.1380618 0.04750567 -0.07131243
v 0.1447162 0.09613701 -0.02484604
v 0.1209875 0.1147262 -9.761783E-07
v 0.155591 0.06398269 -0.05742378
v 0.1539104 0.03334292 -0.06914299
v 0.1687712 0.03764664 -0.05626627
v 0.1682558 0.07316075 -0.03002052
v 0.1834608 0.04151043 -0.03168713
v 0.1872887 0.04227366 -1.044015E-06
v 0.1708392 0.0750163 -1.021885E-06
v 0.1473016 0.09834131 -9.998658E-07
v 0.1447162 0.09613701 0.02484405
v 0.1193928 0.1128358 0.01979973
v 0.1682558 0.07316073 0.03001844
v 0.1834608 0.04151028 0.03168504
v 0.1687712 0.03764664 0.0562642
v 0.155591 0.06398269 0.05742171
v 0.1539104 0.03334276 0.06914092
v 0.138062 0.04750567 0.0713104
v 0.1331926 0.08478485 0.05234021
v 0.1114523 0.1017596 0.04430899
v 0.1150163 0.06475925 0.07027604
v 0.09593964 0.08208164 0.06381599
v 0.1140227 0.1951968 -9.667259E-07
v 0.111095 0.1950033 -9.449196E-07
v 0.1093608 0.1941725 -0.01866488
v 0.1121829 0.194352 -0.01935478
v 0.09897461 0.187446 -0.04582806
v 0.1012883 0.187559 -0.04751055
v 0.08186096 0.1758218 -0.05914967
v 0.08336197 0.1759367 -0.06163491
v 0.06382721 0.1611902 -0.06567243
v 0.06481536 0.161356 -0.06843962
v 0.05578323 0.1376904 -0.07096604
v 0.05666824 0.1378525 -0.07377026
v 0.05197479 0.1179091 -0.07191107
v 0.05281723 0.1180345 -0.0747297
v 0.05337814 0.08054154 -0.07329354
v 0.05409851 0.08071382 -0.07614157
v 0.0658078 0.03262055 -0.07735626
v 0.06593231 0.0329848 -0.08189802
v 0.06593231 0.0329848 -0.08189802
v 0.0658078 0.03262055 -0.07735626
v 0.05223343 -0.006067195 -0.07970737
v 0.0520256 -0.005867445 -0.08294722
v 0.04259628 -0.04142745 -0.0677026
v 0.04094467 -0.04722161 -0.07252078
v 0.03476379 -0.06560303 -0.04559415
v 0.03265304 -0.07501736 -0.04999593
v 0.03199692 -0.07588302 -0.02336052
v 0.03024277 -0.08458563 -0.02238955
v 0.03250381 -0.07727216 -9.784766E-07
v 0.03001892 -0.08760606 -9.731133E-07
v 0.1145637 0.1107364 0.01798445
v 0.1171161 0.1129716 -9.682863E-07
v 0.1149129 0.1381923 -9.716002E-07
v 0.1138078 0.1375708 0.01777365
v 0.1129176 0.1641011 -9.546734E-07
v 0.1043146 0.1269351 0.0426495
v 0.1083864 0.09930924 0.04218576
v 0.09440948 0.08017806 0.06023593
v 0.1115558 0.1637184 0.01859112
v 0.1093608 0.1941725 0.01866299
v 0.111095 0.1950033 -9.449196E-07
v 0.09897461 0.187446 0.04582618
v 0.1018773 0.1539484 0.04267956
v 0.08571487 0.1413278 0.05820576
v 0.08186096 0.1758217 0.0591478
v 0.06382721 0.16119 0.06567056
v 0.08859741 0.1138799 0.05763409
v 0.07045166 0.09760877 0.06733665
v 0.07869827 0.0568582 0.06975523
v 0.06673554 0.129149 0.06800603
v 0.05578323 0.1376903 0.07096418
v 0.05197479 0.1179089 0.07190919
v 0.05337814 0.08054137 0.07329164
v 0.0658078 0.03262039 0.07735433
v 0.1193928 0.1128358 0.01979973
v 0.1191421 0.1374896 -9.673355E-07
v 0.1209875 0.1147262 -9.761783E-07
v 0.117511 0.1352353 0.02084047
v 0.1176363 0.1648099 -9.64772E-07
v 0.1085925 0.1264961 0.04346001
v 0.1114523 0.1017596 0.04430899
v 0.09593964 0.08208164 0.06381599
v 0.1156978 0.162729 0.0218772
v 0.1121829 0.194352 0.01935285
v 0.1140227 0.1951968 -9.667259E-07
v 0.1012883 0.1875591 0.04750865
v 0.1053372 0.1552211 0.04506289
v 0.08845749 0.1432684 0.06093913
v 0.08336197 0.1759367 0.06163304
v 0.06481536 0.1613559 0.06843775
v 0.09176102 0.1119063 0.0598429
v 0.0736235 0.09516264 0.06980688
v 0.07912353 0.05784864 0.0740587
v 0.07022171 0.1294714 0.06956645
v 0.05666839 0.1378523 0.07376841
v 0.05281723 0.1180344 0.07472782
v 0.05409851 0.08071364 0.07613967
v 0.06593246 0.03298463 0.08189611
v 0.1834608 0.04151028 0.03168504
v 0.1872887 0.04227366 -1.044015E-06
v 0.1914966 0.004976596 -1.045309E-06
v 0.1873955 0.005426822 0.03258457
v 0.1845279 -0.03570211 -1.064029E-06
v 0.1710902 0.007746569 0.05675407
v 0.1687712 0.03764664 0.0562642
v 0.1791222 -0.0327887 0.03185583
v 0.1621271 -0.06690221 -1.082545E-06
v 0.1589531 -0.06647553 0.02736018
v 0.1306041 -0.08851373 -1.05242E-06
v 0.1499126 0.01267981 0.07176609
v 0.1539104 0.03334276 0.06914092
v 0.138062 0.04750567 0.0713104
v 0.1631605 -0.02468924 0.05731986
v 0.1277501 -0.08715446 0.02546219
v 0.09545624 -0.09788784 -1.020523E-06
v 0.1426808 -0.01477798 0.07421147
v 0.1257291 0.02481735 0.07977234
v 0.1150163 0.06475925 0.07027604
v 0.1477934 -0.05529925 0.05569312
v 0.09474029 -0.09425153 0.02638579
v 0.06019287 -0.09484632 -9.857092E-07
v 0.09792801 0.0396299 0.07965234
v 0.09593964 0.08208164 0.06381599
v 0.07912353 0.05784864 0.0740587
v 0.1151759 -0.001927202 0.08502228
v 0.0859578 0.01407041 0.08534935
v 0.06593246 0.03298463 0.08189611
v 0.07738678 -0.01865912 0.08368374
v 0.05202591 -0.005867618 0.08294529
v 0.1294542 -0.04126798 0.07267923
v 0.1050127 -0.03084091 0.08181112
v 0.06791367 -0.05365214 0.07189418
v 0.04094482 -0.04722176 0.07251882
v 0.1179358 -0.06035165 0.06813119
v 0.09640564 -0.05955539 0.07150163
v 0.06269608 -0.07772613 0.05205813
v 0.03265304 -0.0750175 0.04999397
v 0.1245122 -0.07565162 0.05223011
v 0.09455337 -0.08097797 0.05259481
v 0.06044906 -0.0910961 0.02584394
v 0.03024277 -0.08458578 0.0223876
v 0.03001892 -0.08760606 -9.731133E-07
v 0.1140227 0.1951968 -9.667259E-07
v 0.1093608 0.1941725 0.01866299
v 0.111095 0.1950033 -9.449196E-07
v 0.1121829 0.194352 0.01935285
v 0.09897461 0.187446 0.04582618
v 0.1012883 0.1875591 0.04750865
v 0.08186096 0.1758217 0.0591478
v 0.08336197 0.1759367 0.06163304
v 0.06382721 0.16119 0.06567056
v 0.06481536 0.1613559 0.06843775
v 0.05578323 0.1376903 0.07096418
v 0.05666839 0.1378523 0.07376841
v 0.05197479 0.1179089 0.07190919
v 0.05281723 0.1180344 0.07472782
v 0.05337814 0.08054137 0.07329164
v 0.05409851 0.08071364 0.07613967
v 0.0658078 0.03262039 0.07735433
v 0.06593246 0.03298463 0.08189611
v 0.06593246 0.03298463 0.08189611
v 0.05223343 -0.006067367 0.07970539
v 0.0658078 0.03262039 0.07735433
v 0.05202591 -0.005867618 0.08294529
v 0.04259643 -0.04142761 0.06770065
v 0.04094482 -0.04722176 0.07251882
v 0.03476379 -0.06560318 0.04559219
v 0.03265304 -0.0750175 0.04999397
v 0.03199692 -0.07588318 0.02335857
v 0.03024277 -0.08458578 0.0223876
v 0.03250381 -0.07727216 -9.784766E-07
v 0.03001892 -0.08760606 -9.731133E-07
v 0.1171161 0.1129716 -9.682863E-07
v 0.1252579 0.09129959 -9.877332E-07
v 0.1230769 0.08938934 -0.01537133
v 0.1145637 0.1107364 -0.01798641
v 0.1145637 0.1107364 0.01798445
v 0.1177975 0.07962357 -0.03605375
v 0.1230769 0.08938934 0.01536934
v 0.1083864 0.09930924 -0.04218772
v 0.1083864 0.09930924 0.04218576
v 0.105853 0.06327424 -0.05147942
v 0.1177975 0.07962356 0.03605178
v 0.09440948 0.08017823 -0.06023789
v 0.09440948 0.08017806 0.06023593
v 0.09242584 0.04334519 -0.0596146
v 0.105853 0.06327407 0.05147744
v 0.07869827 0.05685837 -0.06975717
v 0.07869827 0.0568582 0.06975523
v 0.08140991 0.02263153 -0.06344488
v 0.09242584 0.04334503 0.05961262
v 0.0658078 0.03262055 -0.07735626
v 0.0658078 0.03262039 0.07735433
v 0.06980927 -0.01043106 -0.06546935
v 0.08140991 0.02263137 0.06344291
v 0.05223343 -0.006067195 -0.07970737
v 0.05223343 -0.006067367 0.07970539
v 0.06157349 -0.04064987 -0.05785876
v 0.06980927 -0.01043122 0.06546738
v 0.04259628 -0.04142745 -0.0677026
v 0.04259643 -0.04142761 0.06770065
v 0.05487961 -0.06154784 -0.03896488
v 0.06157349 -0.04065003 0.0578568
v 0.03476379 -0.06560303 -0.04559415
v 0.03476379 -0.06560318 0.04559219
v 0.0525151 -0.07033324 -0.01996404
v 0.05487961 -0.061548 0.03896291
v 0.03199692 -0.07588302 -0.02336052
v 0.03199692 -0.07588318 0.02335857
v 0.05294815 -0.07152008 -9.952161E-07
v 0.0525151 -0.07033324 0.01996206
v 0.03250381 -0.07727216 -9.784766E-07
vt 0.6744304 0.07904753
vt 0.6601014 0.0939353
vt 0.675029 0.09268094
vt 0.6598904 0.08051711
vt 0.6431025 0.09536225
vt 0.6620111 0.06410688
vt 0.6777765 0.06072594
vt 0.6838477 0.0403624
vt 0.6429603 0.08236336
vt 0.6235359 0.08596123
vt 0.6240263 0.09696618
vt 0.6246223 0.06876221
vt 0.6443684 0.0666303
vt 0.6470459 0.05137819
vt 0.6270545 0.05471991
vt 0.6310443 0.04139297
vt 0.6657852 0.04690009
vt 0.6699996 0.03079397
vt 0.6921033 0.02248056
vt 0.6501325 0.03713318
vt 0.6416717 0.03122922
vt 0.6515346 0.02439654
vt 0.6721307 0.01558611
vt 0.701151 0.007639692
vt 0.6744305 0.07904776
vt 0.675029 0.09268094
vt 0.6601012 0.0939346
vt 0.6598907 0.08051618
vt 0.6431025 0.09536225
vt 0.6620114 0.06410712
vt 0.6777766 0.06072617
vt 0.6838479 0.04036241
vt 0.6429603 0.08236336
vt 0.6235363 0.08595991
vt 0.6240259 0.09696455
vt 0.6246226 0.06876222
vt 0.6443684 0.06663007
vt 0.6470462 0.0513782
vt 0.6270545 0.05471991
vt 0.6310446 0.04139299
vt 0.6657854 0.04690033
vt 0.6699998 0.03079399
vt 0.6921053 0.02248131
vt 0.6501329 0.03713319
vt 0.641672 0.03122924
vt 0.6515367 0.02439637
vt 0.6721309 0.01558611
vt 0.7011515 0.0076404
vt 0.6572253 0.7972221
vt 0.674354 0.782279
vt 0.674354 0.7988057
vt 0.6581367 0.7809985
vt 0.6743542 0.7638717
vt 0.6440338 0.7793674
vt 0.6427938 0.7930515
vt 0.6592926 0.7638511
vt 0.674354 0.7470465
vt 0.661724 0.7463034
vt 0.6743542 0.7298293
vt 0.631472 0.7779287
vt 0.6325856 0.789161
vt 0.6248382 0.7954987
vt 0.6448861 0.7635906
vt 0.6619998 0.7293947
vt 0.6743542 0.7131934
vt 0.6318926 0.7629654
vt 0.6180962 0.7796763
vt 0.6147009 0.8043948
vt 0.6469446 0.7474546
vt 0.6600937 0.7140849
vt 0.6743542 0.6960181
vt 0.60276 0.7831656
vt 0.6072007 0.8173876
vt 0.5914606 0.7931387
vt 0.6169525 0.7618403
vt 0.6004409 0.7619362
vt 0.585765 0.7674482
vt 0.6077114 0.7384242
vt 0.5936087 0.7335159
vt 0.6340967 0.7475291
vt 0.6214298 0.7437058
vt 0.6224066 0.7166542
vt 0.6115552 0.7057537
vt 0.6374956 0.736131
vt 0.6317362 0.728148
vt 0.6398903 0.7045733
vt 0.633819 0.6880072
vt 0.6481735 0.7328748
vt 0.6446677 0.7190188
vt 0.6578861 0.6980801
vt 0.6563054 0.6811426
vt 0.6743542 0.6795549
vt 0.6122116 0.5814336
vt 0.5855995 0.5822366
vt 0.5814477 0.6044248
vt 0.6075326 0.6047705
vt 0.6362056 0.5802816
vt 0.5825398 0.6289557
vt 0.6330824 0.6052206
vt 0.6532719 0.5804155
vt 0.6046661 0.6298693
vt 0.5852181 0.6470001
vt 0.6012177 0.6530927
vt 0.6291465 0.631764
vt 0.6249435 0.6598316
vt 0.652428 0.6626003
vt 0.6527388 0.6323264
vt 0.6530142 0.6055143
vt 0.6729479 0.6056302
vt 0.6703376 0.580632
vt 0.6763377 0.6322487
vt 0.6799634 0.6603969
vt 0.7038225 0.6541465
vt 0.700852 0.6308568
vt 0.7199441 0.6483844
vt 0.7229922 0.6303981
vt 0.6985015 0.6057046
vt 0.6943029 0.5822771
vt 0.724588 0.6058951
vt 0.720893 0.5836261
vt 0.6240259 0.09696455
vt 0.6222587 0.09711337
vt 0.6217785 0.08588128
vt 0.6235363 0.08595991
vt 0.6229463 0.06858093
vt 0.6246226 0.06876222
vt 0.6253474 0.05429883
vt 0.6270545 0.05471991
vt 0.6294801 0.04053273
vt 0.6310446 0.04139299
vt 0.6404358 0.02989649
vt 0.641672 0.03122924
vt 0.6506357 0.02282482
vt 0.6515367 0.02439637
vt 0.6714858 0.01389396
vt 0.6721309 0.01558611
vt 0.7006785 0.00591422
vt 0.7011515 0.0076404
vt 0.585765 0.7674482
vt 0.5842358 0.7665904
vt 0.5930225 0.7326357
vt 0.5936087 0.7335159
vt 0.6105312 0.7049302
vt 0.6115552 0.7057537
vt 0.6338598 0.6864465
vt 0.633819 0.6880072
vt 0.6546112 0.6805773
vt 0.6563054 0.6811426
vt 0.6743542 0.6773974
vt 0.6743542 0.6795549
vt 0.6744305 0.07904776
vt 0.675029 0.09268094
vt 0.6601012 0.09393506
vt 0.6598907 0.08051734
vt 0.6431025 0.09536249
vt 0.6620116 0.06410713
vt 0.6777768 0.06072618
vt 0.683848 0.04036264
vt 0.6429603 0.08236336
vt 0.6235359 0.08596123
vt 0.6240258 0.09696571
vt 0.6246228 0.06876246
vt 0.6443684 0.06663007
vt 0.6470462 0.0513782
vt 0.6270549 0.05471969
vt 0.6310446 0.04139299
vt 0.6657859 0.04690034
vt 0.6700003 0.03079423
vt 0.6921039 0.02248081
vt 0.6501331 0.03713342
vt 0.6416724 0.03122971
vt 0.6515355 0.02439656
vt 0.6721314 0.01558636
vt 0.701152 0.007640646
vt 0.6744299 0.07904752
vt 0.6601012 0.09393506
vt 0.675029 0.09268094
vt 0.6598907 0.08051734
vt 0.6431024 0.09536342
vt 0.6620103 0.06410731
vt 0.6777757 0.06072614
vt 0.6838465 0.04036214
vt 0.6429603 0.08236406
vt 0.6235359 0.08596123
vt 0.6240261 0.09696595
vt 0.6246219 0.06876358
vt 0.6443679 0.06663139
vt 0.647045 0.05137909
vt 0.6270536 0.05472128
vt 0.6310433 0.04139427
vt 0.6657841 0.04690028
vt 0.6699984 0.03079394
vt 0.6921035 0.02248056
vt 0.6501316 0.03713407
vt 0.6416706 0.03122988
vt 0.651535 0.02439678
vt 0.6721292 0.01558605
vt 0.7011492 0.007639171
vt 0.6572598 0.7972395
vt 0.674354 0.7988061
vt 0.6743542 0.782279
vt 0.6581544 0.7810153
vt 0.6743542 0.7638717
vt 0.6440495 0.7793993
vt 0.6428238 0.7930844
vt 0.6592919 0.7638667
vt 0.6743542 0.7470461
vt 0.6617051 0.7463167
vt 0.6743542 0.7298293
vt 0.6314861 0.777974
vt 0.6326121 0.7892048
vt 0.6248709 0.7955508
vt 0.6448852 0.7636217
vt 0.6619629 0.7294074
vt 0.6743542 0.7131929
vt 0.6318907 0.7630098
vt 0.6181122 0.7797353
vt 0.6147436 0.8044579
vt 0.6469272 0.7474834
vt 0.6600405 0.7140996
vt 0.6743542 0.6960176
vt 0.6027797 0.783241
vt 0.607257 0.8174584
vt 0.5914909 0.7932256
vt 0.6169497 0.7619006
vt 0.6004385 0.7620139
vt 0.5857683 0.7675414
vt 0.6076843 0.7384941
vt 0.5935766 0.7336005
vt 0.6340793 0.7475712
vt 0.6214083 0.7437611
vt 0.6223565 0.7167082
vt 0.6114939 0.7058191
vt 0.6374661 0.7361698
vt 0.6316983 0.7281923
vt 0.6398278 0.7046089
vt 0.6337396 0.6880493
vt 0.6481405 0.7329022
vt 0.6446198 0.7190499
vt 0.6578168 0.6980971
vt 0.6562186 0.6811608
vt 0.674354 0.679554
vt 0.6240261 0.09696595
vt 0.6217785 0.08588307
vt 0.6222587 0.09711424
vt 0.6235359 0.08596123
vt 0.6229454 0.06858207
vt 0.6246219 0.06876358
vt 0.6253467 0.05430037
vt 0.6270536 0.05472128
vt 0.6294787 0.04053408
vt 0.6310433 0.04139427
vt 0.6404343 0.02989713
vt 0.6416706 0.03122988
vt 0.6506342 0.022825
vt 0.651535 0.02439678
vt 0.671484 0.01389437
vt 0.6721292 0.01558605
vt 0.7006762 0.005913452
vt 0.7011492 0.007639171
vt 0.5857683 0.7675414
vt 0.5929893 0.7327207
vt 0.5842384 0.7666845
vt 0.5935766 0.7336005
vt 0.6104695 0.7049969
vt 0.6114939 0.7058191
vt 0.6337785 0.6864886
vt 0.6337396 0.6880493
vt 0.6545242 0.6805974
vt 0.6562186 0.6811608
vt 0.6743542 0.6773965
vt 0.674354 0.679554
vt 0.3767542 0.3750355
vt 0.376621 0.3768499
vt 0.3783282 0.3772666
vt 0.3789454 0.3755791
vt 0.3745053 0.3752425
vt 0.3805674 0.3787448
vt 0.3748734 0.3769976
vt 0.3817632 0.3773037
vt 0.3714519 0.3765388
vt 0.3822998 0.3809674
vt 0.3724542 0.3781097
vt 0.3838738 0.380053
vt 0.3690062 0.379076
vt 0.3832413 0.383727
vt 0.3704661 0.3801619
vt 0.3849968 0.383163
vt 0.3675176 0.3820901
vt 0.3836666 0.3864864
vt 0.3692003 0.3828434
vt 0.385497 0.386158
vt 0.3666672 0.3850543
vt 0.3835341 0.3906107
vt 0.3684493 0.3855827
vt 0.3853508 0.3907062
vt 0.3662776 0.3896461
vt 0.3823408 0.3941987
vt 0.3680903 0.3897606
vt 0.3839258 0.3949474
vt 0.3672022 0.3940105
vt 0.3799796 0.3965683
vt 0.368862 0.3934491
vt 0.3810722 0.3979561
vt 0.3696872 0.3973143
vt 0.3777248 0.3974895
vt 0.3709332 0.3960619
vt 0.3782326 0.3991647
vt 0.3723673 0.3988336
vt 0.3753871 0.3974853
vt 0.3730654 0.3972281
vt 0.3752811 0.3993073
vn -0.9454211 -0.1749933 0.2748747
vn -0.9976138 -0.06904075 0
vn -0.9827928 -0.1847116 0
vn -0.9632929 -0.07452033 0.257902
vn -0.9974071 -0.07196578 -1.953135E-07
vn -0.8241861 -0.08524778 0.5598661
vn -0.7998433 -0.1636154 0.5774779
vn -0.5362175 -0.1001889 0.8381128
vn -0.9608498 -0.06626174 0.2690297
vn -0.96477 -0.05969174 0.2562335
vn -0.9978695 -0.06524135 -2.683323E-07
vn -0.8391843 -0.04169495 0.5422465
vn -0.8165485 -0.05023254 0.5750872
vn -0.5335916 -0.04474561 0.8445578
vn -0.5643037 -0.03115511 0.8249792
vn -0.3627857 -0.05671785 0.930145
vn -0.5472623 -0.08959315 0.8321521
vn -0.3309501 -0.08779974 0.9395549
vn -0.3993678 -0.05408467 0.9151941
vn -0.3681245 -0.04156962 0.9288467
vn -0.5108509 0.01644891 0.859512
vn -0.4314304 -0.02472088 0.9018075
vn -0.4211221 -0.1322916 0.8973043
vn -0.6424825 0.07194646 0.7629154
vn 0.7619847 0.5586498 -0.3275511
vn 0.8059254 0.5920171 0
vn 0.9977169 0.06753494 0
vn 0.9621636 0.07221714 -0.2627277
vn 0.9958087 0.0914607 0
vn 0.8097131 0.0794826 -0.5814182
vn 0.5537362 0.4853708 -0.6766028
vn 0.2792844 0.3423597 -0.8971009
vn 0.9553289 0.09104642 -0.2811711
vn 0.9580965 0.1139347 -0.262812
vn 0.9929903 0.1181963 0
vn 0.8194991 0.08777525 -0.5663186
vn 0.8013235 0.06856298 -0.5942893
vn 0.5304005 0.04895755 -0.8463324
vn 0.5417031 0.05587018 -0.8387111
vn 0.3422609 0.06072878 -0.9376404
vn 0.542796 0.09317666 -0.8346799
vn 0.3115627 0.1046688 -0.9444433
vn 0.147544 0.2324282 -0.9613574
vn 0.3609895 0.04328469 -0.9315648
vn 0.147007 0.1020505 -0.983857
vn 0.1363392 0.04874649 -0.9894622
vn 0.0500959 0.09447632 -0.994266
vn -0.1312352 0.1522266 -0.979594
vn 0.9145871 0.2649058 -0.3055409
vn 0.9988593 -0.04775138 0
vn 0.961489 0.2748434 2.809077E-07
vn 0.9421217 -0.05402403 -0.3308898
vn 0.9281342 -0.3722456 -5.859803E-07
vn 0.7499685 -0.0566124 -0.6590465
vn 0.7428707 0.2187881 -0.6326728
vn 0.8685192 -0.3533098 -0.34763
vn 0.7234806 -0.6903448 -1.463902E-06
vn 0.6853713 -0.6621395 -0.3030469
vn 0.4189048 -0.9080302 -1.836887E-06
vn 0.4718584 -0.0002526038 -0.8816743
vn 0.480554 0.1489034 -0.8642313
vn 0.2846485 0.3145986 -0.9055402
vn 0.6881313 -0.2788373 -0.6698694
vn 0.3856521 -0.8827949 -0.2682269
vn 0.07547916 -0.9971474 -2.330055E-06
vn 0.4389055 -0.1540837 -0.8852232
vn 0.2127897 0.1488083 -0.9657001
vn 0.1627134 0.4156901 -0.894833
vn 0.5863304 -0.5215404 -0.6198486
vn 0.05678796 -0.9550979 -0.2907976
vn -0.1525832 -0.9882907 -2.794681E-06
vn 0.0721096 0.2536198 -0.9646124
vn 0.2792844 0.3423597 -0.8971009
vn 0.147544 0.2324282 -0.9613574
vn 0.1691441 -0.02573821 -0.9852552
vn -0.001548127 0.07153276 -0.997437
vn -0.1312352 0.1522266 -0.979594
vn -0.06013502 -0.1655503 -0.9843662
vn -0.2337284 -0.06718705 -0.9699779
vn 0.3586244 -0.3248193 -0.8751462
vn 0.08081597 -0.2293671 -0.9699791
vn -0.09523282 -0.4504915 -0.887687
vn -0.3116015 -0.3625492 -0.8783294
vn 0.2354512 -0.5232505 -0.8190064
vn 0.000841974 -0.498353 -0.8669738
vn -0.1223843 -0.7734741 -0.6219003
vn -0.3862303 -0.708837 -0.590234
vn 0.3394497 -0.7589424 -0.5556801
vn 0.01794402 -0.8071058 -0.5901339
vn -0.1426334 -0.9443808 -0.2963115
vn -0.4498727 -0.8538499 -0.2618296
vn -0.4732112 -0.880949 -2.849016E-06
vn 0.5537362 0.4853708 -0.6766028
vn 0.2792844 0.3423597 -0.8971009
vn 0.1627134 0.4156901 -0.894833
vn 0.3769365 0.6418148 -0.6678268
vn 0.7619847 0.5586498 -0.3275511
vn 0.2846485 0.3145986 -0.9055402
vn 0.5615247 0.7613401 -0.3241162
vn 0.8059254 0.5920171 0
vn 0.5548214 0.4987146 -0.6659256
vn 0.480554 0.1489034 -0.8642313
vn 0.7428707 0.2187881 -0.6326728
vn 0.7572069 0.5720025 -0.3153581
vn 0.9145871 0.2649058 -0.3055409
vn 0.961489 0.2748434 2.809077E-07
vn 0.8173823 0.5760956 3.653192E-07
vn 0.6286129 0.7777184 0
vn 0.5615252 0.7613396 0.3241164
vn 0.7619849 0.5586492 0.3275513
vn 0.7572076 0.5720018 0.315358
vn 0.9145874 0.2649048 0.3055411
vn 0.7428715 0.218788 0.6326718
vn 0.5548224 0.498714 0.6659252
vn 0.4805561 0.1489017 0.8642305
vn 0.2846495 0.3145989 0.9055398
vn 0.3769364 0.6418139 0.6678277
vn 0.5537362 0.4853696 0.6766038
vn 0.1627134 0.4156893 0.8948333
vn 0.2792845 0.342359 0.8971012
vn -0.06919824 0.997603 -1.859777E-07
vn -0.06919824 0.997603 1.67501E-07
vn -0.1126989 0.9855223 -0.1266681
vn -0.1128035 0.9854826 -0.1268837
vn -0.2441728 0.9416196 -0.2318016
vn -0.2428133 0.9421228 -0.2311842
vn -0.4666156 0.8471466 -0.2541898
vn -0.4610247 0.8496503 -0.2560287
vn -0.7559559 0.6008597 -0.2598041
vn -0.756893 0.5996119 -0.2599589
vn -0.5108509 0.01644891 0.859512
vn 0.147007 0.1020505 -0.983857
vn -0.4314304 -0.02472088 0.9018075
vn 0.1363392 0.04874649 -0.9894622
vn -0.4211221 -0.1322916 0.8973043
vn 0.0500959 0.09447632 -0.994266
vn -0.6424825 0.07194646 0.7629154
vn -0.1312352 0.1522266 -0.979594
vn -0.1312352 0.1522266 -0.979594
vn -0.6424825 0.07194646 0.7629154
vn -0.954698 0.2955755 0.03445176
vn -0.2337284 -0.06718705 -0.9699779
vn -0.9637107 0.266926 -0.00348577
vn -0.3116015 -0.3625492 -0.8783294
vn -0.9694226 0.2433143 -0.03190369
vn -0.3862303 -0.708837 -0.590234
vn -0.976762 0.2143256 -0.0007137589
vn -0.4498727 -0.8538499 -0.2618296
vn -0.9757981 0.2186735 7.823745E-07
vn -0.4732112 -0.880949 -2.849016E-06
vn -0.9454212 -0.174993 -0.2748747
vn -0.9827928 -0.1847116 0
vn -0.9976138 -0.06904075 0
vn -0.963293 -0.07452013 -0.2579018
vn -0.9974071 -0.07196578 -1.953135E-07
vn -0.8241861 -0.08524711 -0.5598662
vn -0.7998434 -0.1636148 -0.577478
vn -0.5362186 -0.1001881 -0.8381122
vn -0.9608498 -0.06626158 -0.26903
vn -0.96477 -0.05969157 -0.2562338
vn -0.9978695 -0.06524135 -2.683323E-07
vn -0.8391849 -0.04169488 -0.5422454
vn -0.8165485 -0.05023221 -0.5750871
vn -0.5335918 -0.04474495 -0.8445577
vn -0.564304 -0.03115449 -0.8249789
vn -0.3627852 -0.05671734 -0.9301451
vn -0.5472629 -0.08959254 -0.8321518
vn -0.3309515 -0.08779918 -0.9395543
vn -0.399369 -0.05408408 -0.9151936
vn -0.3681255 -0.04156901 -0.9288464
vn -0.5108551 0.01645032 -0.8595095
vn -0.4314314 -0.02472015 -0.901807
vn -0.4211238 -0.1322913 -0.8973036
vn -0.6424874 0.07194766 -0.7629111
vn 0.7619849 0.5586492 0.3275513
vn 0.9977169 0.06753494 0
vn 0.8059254 0.5920171 0
vn 0.9621637 0.07221676 0.2627274
vn 0.9958087 0.0914607 0
vn 0.8097134 0.07948205 0.581418
vn 0.5537362 0.4853696 0.6766038
vn 0.2792845 0.342359 0.8971012
vn 0.9553289 0.09104631 0.2811714
vn 0.9580964 0.1139346 0.2628123
vn 0.9929903 0.1181963 0
vn 0.8194991 0.08777459 0.5663186
vn 0.8013236 0.06856243 0.5942893
vn 0.5304012 0.04895686 0.846332
vn 0.5417047 0.05586952 0.8387102
vn 0.3422617 0.06072812 0.9376401
vn 0.5427969 0.09317609 0.8346795
vn 0.3115641 0.1046684 0.9444429
vn 0.1475461 0.2324281 0.961357
vn 0.3609913 0.04328372 0.9315642
vn 0.1470086 0.1020499 0.9838569
vn 0.13634 0.04874578 0.9894621
vn 0.05009723 0.0944759 0.9942659
vn -0.1312327 0.1522267 0.9795943
vn 0.9145874 0.2649048 0.3055411
vn 0.961489 0.2748434 2.809077E-07
vn 0.9988593 -0.04775138 0
vn 0.942122 -0.05402382 0.3308892
vn 0.9281342 -0.3722456 -5.859803E-07
vn 0.7499695 -0.05661131 0.6590454
vn 0.7428715 0.218788 0.6326718
vn 0.8685201 -0.3533088 0.3476285
vn 0.7234806 -0.6903448 -1.463902E-06
vn 0.6853729 -0.6621389 0.3030444
vn 0.4189048 -0.9080302 -1.836887E-06
vn 0.4718603 -0.0002516639 0.8816733
vn 0.4805561 0.1489017 0.8642305
vn 0.2846495 0.3145989 0.9055398
vn 0.6881331 -0.2788356 0.6698684
vn 0.3856542 -0.8827947 0.2682241
vn 0.07547916 -0.9971474 -2.330055E-06
vn 0.4389079 -0.1540837 0.8852221
vn 0.2127911 0.1488082 0.9656998
vn 0.1627134 0.4156893 0.8948333
vn 0.5863323 -0.5215398 0.6198474
vn 0.05679044 -0.9550988 0.2907941
vn -0.1525832 -0.9882907 -2.794681E-06
vn 0.07211116 0.2536197 0.9646124
vn 0.2792845 0.342359 0.8971012
vn 0.1475461 0.2324281 0.961357
vn 0.1691457 -0.02573828 0.9852549
vn -0.001546901 0.07153248 0.997437
vn -0.1312327 0.1522267 0.9795943
vn -0.06013417 -0.1655515 0.9843661
vn -0.2337276 -0.06718779 0.969978
vn 0.3586259 -0.3248205 0.8751452
vn 0.08081723 -0.2293678 0.9699789
vn -0.09523199 -0.4504916 0.887687
vn -0.3116003 -0.3625492 0.8783298
vn 0.2354527 -0.5232515 0.8190053
vn 0.0008432151 -0.4983536 0.8669735
vn -0.1223835 -0.7734745 0.6219
vn -0.3862303 -0.7088362 0.590235
vn 0.3394514 -0.758943 0.5556783
vn 0.01794585 -0.8071065 0.5901332
vn -0.142633 -0.9443821 0.296308
vn -0.4498725 -0.853851 0.2618267
vn -0.4732112 -0.880949 -2.849016E-06
vn -0.06919824 0.997603 -1.859777E-07
vn -0.1126971 0.9855223 0.1266697
vn -0.06919824 0.997603 1.67501E-07
vn -0.1128011 0.9854828 0.126884
vn -0.2441783 0.94162 0.2317947
vn -0.2428181 0.9421234 0.2311772
vn -0.4666289 0.847144 0.2541741
vn -0.461035 0.8496491 0.256014
vn -0.755956 0.6008575 0.2598091
vn -0.7568933 0.5996091 0.2599641
vn -0.5108551 0.01645032 -0.8595095
vn 0.1470086 0.1020499 0.9838569
vn -0.4314314 -0.02472015 -0.901807
vn 0.13634 0.04874578 0.9894621
vn -0.4211238 -0.1322913 -0.8973036
vn 0.05009723 0.0944759 0.9942659
vn -0.6424874 0.07194766 -0.7629111
vn -0.1312327 0.1522267 0.9795943
vn -0.1312327 0.1522267 0.9795943
vn -0.9547008 0.2955711 -0.03441093
vn -0.6424874 0.07194766 -0.7629111
vn -0.2337276 -0.06718779 0.969978
vn -0.9637114 0.2669234 0.003502757
vn -0.3116003 -0.3625492 0.8783298
vn -0.9694222 0.2433159 0.0319059
vn -0.3862303 -0.7088362 0.590235
vn -0.976762 0.2143255 0.0007141824
vn -0.4498725 -0.853851 0.2618267
vn -0.9757981 0.2186735 7.823745E-07
vn -0.4732112 -0.880949 -2.849016E-06
vn -0.9827928 -0.1847116 0
vn -0.9361171 -0.3516884 0
vn -0.8993529 -0.3224871 0.2952396
vn -0.9454211 -0.1749933 0.2748747
vn -0.9454212 -0.174993 -0.2748747
vn -0.8043377 -0.2115223 0.555247
vn -0.899353 -0.3224871 -0.2952394
vn -0.7998433 -0.1636154 0.5774779
vn -0.7998434 -0.1636148 -0.577478
vn -0.6415945 -0.03737897 0.7661327
vn -0.8043375 -0.2115212 -0.5552476
vn -0.5362175 -0.1001889 0.8381128
vn -0.5362186 -0.1001881 -0.8381122
vn -0.5731344 0.07490372 0.8160309
vn -0.6415949 -0.03737821 -0.7661324
vn -0.3993678 -0.05408467 0.9151941
vn -0.399369 -0.05408408 -0.9151936
vn -0.5907488 0.1391675 0.794763
vn -0.5731353 0.07490431 -0.8160302
vn -0.6424825 0.07194646 0.7629154
vn -0.6424874 0.07194766 -0.7629111
vn -0.5480269 0.2618195 0.7944287
vn -0.5907493 0.1391682 -0.7947626
vn -0.5496386 0.2587717 0.7943138
vn -0.5496395 0.2587712 -0.7943134
vn -0.4334199 0.5228951 0.7339809
vn -0.5480278 0.2618191 -0.7944283
vn -0.430821 0.5293002 0.7309135
vn -0.4308226 0.5292999 -0.7309127
vn -0.3344854 0.7787687 0.5306966
vn -0.4334214 0.5228952 -0.7339799
vn -0.3335848 0.7823079 0.5260376
vn -0.3335868 0.7823087 -0.526035
vn -0.2884512 0.931943 0.2197226
vn -0.3344873 0.7787696 -0.5306941
vn -0.2892892 0.929502 0.2287749
vn -0.2892922 0.929502 -0.2287713
vn -0.2708309 0.9626269 1.691894E-06
vn -0.2884541 0.931943 -0.2197189
vn -0.2708309 0.9626269 1.59119E-06
g Cap_0
f 3/3/3 2/2/2 1/1/1
f 2/2/2 4/4/4 1/1/1
f 2/2/2 5/5/5 4/4/4
f 4/4/4 6/6/6 1/1/1
f 6/6/6 7/7/7 1/1/1
f 8/8/8 7/7/7 6/6/6
f 5/5/5 9/9/9 4/4/4
f 9/9/9 5/5/5 10/10/10
f 5/5/5 11/11/11 10/10/10
f 10/10/10 12/12/12 9/9/9
f 9/9/9 13/13/13 4/4/4
f 12/12/12 13/13/13 9/9/9
f 13/13/13 6/6/6 4/4/4
f 14/14/14 13/13/13 12/12/12
f 6/6/6 13/13/13 14/14/14
f 15/15/15 14/14/14 12/12/12
f 15/15/15 16/16/16 14/14/14
f 17/17/17 8/8/8 6/6/6
f 17/17/17 6/6/6 14/14/14
f 17/17/17 18/18/18 8/8/8
f 18/18/18 17/17/17 14/14/14
f 18/18/18 19/19/19 8/8/8
f 16/16/16 20/20/20 14/14/14
f 20/20/20 18/18/18 14/14/14
f 20/20/20 16/16/16 21/21/21
f 22/22/22 20/20/20 21/21/21
f 18/18/18 20/20/20 22/22/22
f 23/23/23 18/18/18 22/22/22
f 18/18/18 23/23/23 19/19/19
f 23/23/23 24/24/24 19/19/19
f 27/27/27 26/26/26 25/25/25
f 28/28/28 27/27/27 25/25/25
f 29/29/29 27/27/27 28/28/28
f 30/30/30 28/28/28 25/25/25
f 31/31/31 30/30/30 25/25/25
f 31/31/31 32/32/32 30/30/30
f 33/33/33 29/29/29 28/28/28
f 29/29/29 33/33/33 34/34/34
f 35/35/35 29/29/29 34/34/34
f 36/36/36 34/34/34 33/33/33
f 37/37/37 33/33/33 28/28/28
f 37/37/37 36/36/36 33/33/33
f 30/30/30 37/37/37 28/28/28
f 37/37/37 38/38/38 36/36/36
f 37/37/37 30/30/30 38/38/38
f 38/38/38 39/39/39 36/36/36
f 40/40/40 39/39/39 38/38/38
f 32/32/32 41/41/41 30/30/30
f 30/30/30 41/41/41 38/38/38
f 42/42/42 41/41/41 32/32/32
f 41/41/41 42/42/42 38/38/38
f 43/43/43 42/42/42 32/32/32
f 44/44/44 40/40/40 38/38/38
f 42/42/42 44/44/44 38/38/38
f 40/40/40 44/44/44 45/45/45
f 44/44/44 46/46/46 45/45/45
f 44/44/44 42/42/42 46/46/46
f 42/42/42 47/47/47 46/46/46
f 47/47/47 42/42/42 43/43/43
f 48/48/48 47/47/47 43/43/43
f 51/51/51 50/50/50 49/49/49
f 50/50/50 52/52/52 49/49/49
f 52/52/52 50/50/50 53/53/53
f 49/49/49 52/52/52 54/54/54
f 55/55/55 49/49/49 54/54/54
f 56/56/56 52/52/52 53/53/53
f 52/52/52 56/56/56 54/54/54
f 53/53/53 57/57/57 56/56/56
f 57/57/57 58/58/58 56/56/56
f 58/58/58 57/57/57 59/59/59
f 55/55/55 54/54/54 60/60/60
f 61/61/61 55/55/55 60/60/60
f 62/62/62 61/61/61 60/60/60
f 56/56/56 63/63/63 54/54/54
f 56/56/56 58/58/58 63/63/63
f 64/64/64 58/58/58 59/59/59
f 64/64/64 59/59/59 65/65/65
f 66/66/66 60/60/60 54/54/54
f 63/63/63 66/66/66 54/54/54
f 67/67/67 62/62/62 60/60/60
f 60/60/60 66/66/66 67/67/67
f 68/68/68 62/62/62 67/67/67
f 58/58/58 69/69/69 63/63/63
f 58/58/58 64/64/64 69/69/69
f 63/63/63 69/69/69 66/66/66
f 70/70/70 64/64/64 65/65/65
f 65/65/65 71/71/71 70/70/70
f 72/72/72 68/68/68 67/67/67
f 68/68/68 72/72/72 73/73/73
f 72/72/72 74/74/74 73/73/73
f 66/66/66 75/75/75 67/67/67
f 67/67/67 75/75/75 72/72/72
f 72/72/72 76/76/76 74/74/74
f 75/75/75 76/76/76 72/72/72
f 76/76/76 77/77/77 74/74/74
f 76/76/76 78/78/78 77/77/77
f 76/76/76 75/75/75 78/78/78
f 78/78/78 79/79/79 77/77/77
f 75/75/75 66/66/66 80/80/80
f 69/69/69 80/80/80 66/66/66
f 81/81/81 75/75/75 80/80/80
f 75/75/75 81/81/81 78/78/78
f 78/78/78 82/82/82 79/79/79
f 82/82/82 83/83/83 79/79/79
f 80/80/80 69/69/69 84/84/84
f 80/80/80 84/84/84 81/81/81
f 81/81/81 85/85/85 78/78/78
f 85/85/85 82/82/82 78/78/78
f 84/84/84 85/85/85 81/81/81
f 82/82/82 86/86/86 83/83/83
f 86/86/86 82/82/82 85/85/85
f 86/86/86 87/87/87 83/83/83
f 69/69/69 88/88/88 84/84/84
f 64/64/64 88/88/88 69/69/69
f 88/88/88 64/64/64 70/70/70
f 85/85/85 84/84/84 89/89/89
f 84/84/84 88/88/88 89/89/89
f 89/89/89 86/86/86 85/85/85
f 89/89/89 88/88/88 70/70/70
f 87/87/87 86/86/86 90/90/90
f 86/86/86 89/89/89 90/90/90
f 89/89/89 70/70/70 90/90/90
f 91/91/91 87/87/87 90/90/90
f 71/71/71 90/90/90 70/70/70
f 91/91/91 90/90/90 92/92/92
f 90/90/90 71/71/71 92/92/92
f 95/95/95 94/94/94 93/93/93
f 96/96/96 95/95/95 93/93/93
f 93/93/93 97/97/97 96/96/96
f 98/98/98 95/95/95 96/96/96
f 97/97/97 99/99/99 96/96/96
f 97/97/97 100/100/100 99/99/99
f 101/101/101 98/98/98 96/96/96
f 96/96/96 99/99/99 101/101/101
f 98/98/98 101/101/101 102/102/102
f 101/101/101 103/103/103 102/102/102
f 101/101/101 104/104/104 103/103/103
f 99/99/99 104/104/104 101/101/101
f 104/104/104 105/105/105 103/103/103
f 106/106/106 105/105/105 104/104/104
f 104/104/104 99/99/99 107/107/107
f 107/107/107 106/106/106 104/104/104
f 100/100/100 108/108/108 99/99/99
f 99/99/99 108/108/108 107/107/107
f 108/108/108 100/100/100 109/109/109
f 108/108/108 109/109/109 107/107/107
f 100/100/100 110/110/110 109/109/109
f 106/106/106 107/107/107 111/111/111
f 109/109/109 111/111/111 107/107/107
f 112/112/112 106/106/106 111/111/111
f 112/112/112 111/111/111 113/113/113
f 111/111/111 114/114/114 113/113/113
f 111/111/111 109/109/109 114/114/114
f 113/113/113 114/114/114 115/115/115
f 114/114/114 116/116/116 115/115/115
f 109/109/109 110/110/110 117/117/117
f 109/109/109 117/117/117 114/114/114
f 116/116/116 114/114/114 117/117/117
f 110/110/110 118/118/118 117/117/117
f 119/119/119 116/116/116 117/117/117
f 119/119/119 117/117/117 118/118/118
f 120/120/120 119/119/119 118/118/118
f 123/123/123 122/122/122 121/121/121
f 124/124/124 123/123/123 121/121/121
f 125/125/125 123/123/123 124/124/124
f 126/126/126 125/125/125 124/124/124
f 127/127/127 125/125/125 126/126/126
f 128/128/128 127/127/127 126/126/126
f 129/129/129 127/127/127 128/128/128
f 130/130/130 129/129/129 128/128/128
f 131/131/131 129/129/129 130/130/130
f 132/132/132 131/131/131 130/130/130
f 133/133/133 131/131/131 132/132/132
f 134/134/134 133/133/133 132/132/132
f 135/135/135 133/133/133 134/134/134
f 136/136/136 135/135/135 134/134/134
f 137/137/137 135/135/135 136/136/136
f 138/138/138 137/137/137 136/136/136
f 141/141/141 140/140/140 139/139/139
f 142/142/142 141/141/141 139/139/139
f 143/143/143 141/141/141 142/142/142
f 144/144/144 143/143/143 142/142/142
f 145/145/145 143/143/143 144/144/144
f 146/146/146 145/145/145 144/144/144
f 147/147/147 145/145/145 146/146/146
f 148/148/148 147/147/147 146/146/146
f 149/149/149 147/147/147 148/148/148
f 150/150/150 149/149/149 148/148/148
f 153/153/153 152/152/152 151/151/151
f 154/154/154 153/153/153 151/151/151
f 155/155/155 153/153/153 154/154/154
f 156/156/156 154/154/154 151/151/151
f 157/157/157 156/156/156 151/151/151
f 157/157/157 158/158/158 156/156/156
f 159/159/159 155/155/155 154/154/154
f 155/155/155 159/159/159 160/160/160
f 161/161/161 155/155/155 160/160/160
f 162/162/162 160/160/160 159/159/159
f 163/163/163 159/159/159 154/154/154
f 163/163/163 162/162/162 159/159/159
f 156/156/156 163/163/163 154/154/154
f 163/163/163 164/164/164 162/162/162
f 163/163/163 156/156/156 164/164/164
f 164/164/164 165/165/165 162/162/162
f 166/166/166 165/165/165 164/164/164
f 158/158/158 167/167/167 156/156/156
f 156/156/156 167/167/167 164/164/164
f 168/168/168 167/167/167 158/158/158
f 167/167/167 168/168/168 164/164/164
f 169/169/169 168/168/168 158/158/158
f 170/170/170 166/166/166 164/164/164
f 168/168/168 170/170/170 164/164/164
f 166/166/166 170/170/170 171/171/171
f 170/170/170 172/172/172 171/171/171
f 170/170/170 168/168/168 172/172/172
f 168/168/168 173/173/173 172/172/172
f 173/173/173 168/168/168 169/169/169
f 174/174/174 173/173/173 169/169/169
f 177/177/177 176/176/176 175/175/175
f 176/176/176 178/178/178 175/175/175
f 176/176/176 179/179/179 178/178/178
f 178/178/178 180/180/180 175/175/175
f 180/180/180 181/181/181 175/175/175
f 182/182/182 181/181/181 180/180/180
f 179/179/179 183/183/183 178/178/178
f 183/183/183 179/179/179 184/184/184
f 179/179/179 185/185/185 184/184/184
f 184/184/184 186/186/186 183/183/183
f 183/183/183 187/187/187 178/178/178
f 186/186/186 187/187/187 183/183/183
f 187/187/187 180/180/180 178/178/178
f 188/188/188 187/187/187 186/186/186
f 180/180/180 187/187/187 188/188/188
f 189/189/189 188/188/188 186/186/186
f 189/189/189 190/190/190 188/188/188
f 191/191/191 182/182/182 180/180/180
f 191/191/191 180/180/180 188/188/188
f 191/191/191 192/192/192 182/182/182
f 192/192/192 191/191/191 188/188/188
f 192/192/192 193/193/193 182/182/182
f 190/190/190 194/194/194 188/188/188
f 194/194/194 192/192/192 188/188/188
f 194/194/194 190/190/190 195/195/195
f 196/196/196 194/194/194 195/195/195
f 192/192/192 194/194/194 196/196/196
f 197/197/197 192/192/192 196/196/196
f 192/192/192 197/197/197 193/193/193
f 197/197/197 198/198/198 193/193/193
f 201/201/201 200/200/200 199/199/199
f 202/202/202 201/201/201 199/199/199
f 201/201/201 202/202/202 203/203/203
f 202/202/202 199/199/199 204/204/204
f 199/199/199 205/205/205 204/204/204
f 202/202/202 206/206/206 203/203/203
f 206/206/206 202/202/202 204/204/204
f 207/207/207 203/203/203 206/206/206
f 208/208/208 207/207/207 206/206/206
f 207/207/207 208/208/208 209/209/209
f 204/204/204 205/205/205 210/210/210
f 205/205/205 211/211/211 210/210/210
f 211/211/211 212/212/212 210/210/210
f 213/213/213 206/206/206 204/204/204
f 208/208/208 206/206/206 213/213/213
f 208/208/208 214/214/214 209/209/209
f 209/209/209 214/214/214 215/215/215
f 210/210/210 216/216/216 204/204/204
f 216/216/216 213/213/213 204/204/204
f 212/212/212 217/217/217 210/210/210
f 216/216/216 210/210/210 217/217/217
f 212/212/212 218/218/218 217/217/217
f 219/219/219 208/208/208 213/213/213
f 214/214/214 208/208/208 219/219/219
f 219/219/219 213/213/213 216/216/216
f 214/214/214 220/220/220 215/215/215
f 221/221/221 215/215/215 220/220/220
f 218/218/218 222/222/222 217/217/217
f 222/222/222 218/218/218 223/223/223
f 224/224/224 222/222/222 223/223/223
f 225/225/225 216/216/216 217/217/217
f 225/225/225 217/217/217 222/222/222
f 226/226/226 222/222/222 224/224/224
f 226/226/226 225/225/225 222/222/222
f 227/227/227 226/226/226 224/224/224
f 228/228/228 226/226/226 227/227/227
f 225/225/225 226/226/226 228/228/228
f 229/229/229 228/228/228 227/227/227
f 216/216/216 225/225/225 230/230/230
f 230/230/230 219/219/219 216/216/216
f 225/225/225 231/231/231 230/230/230
f 231/231/231 225/225/225 228/228/228
f 232/232/232 228/228/228 229/229/229
f 233/233/233 232/232/232 229/229/229
f 219/219/219 230/230/230 234/234/234
f 234/234/234 230/230/230 231/231/231
f 235/235/235 231/231/231 228/228/228
f 232/232/232 235/235/235 228/228/228
f 235/235/235 234/234/234 231/231/231
f 236/236/236 232/232/232 233/233/233
f 232/232/232 236/236/236 235/235/235
f 237/237/237 236/236/236 233/233/233
f 238/238/238 219/219/219 234/234/234
f 238/238/238 214/214/214 219/219/219
f 214/214/214 238/238/238 220/220/220
f 234/234/234 235/235/235 239/239/239
f 238/238/238 234/234/234 239/239/239
f 236/236/236 239/239/239 235/235/235
f 238/238/238 239/239/239 220/220/220
f 236/236/236 237/237/237 240/240/240
f 239/239/239 236/236/236 240/240/240
f 220/220/220 239/239/239 240/240/240
f 237/237/237 241/241/241 240/240/240
f 240/240/240 221/221/221 220/220/220
f 240/240/240 241/241/241 242/242/242
f 221/221/221 240/240/240 242/242/242
f 245/245/245 244/244/244 243/243/243
f 244/244/244 246/246/246 243/243/243
f 244/244/244 247/247/247 246/246/246
f 247/247/247 248/248/248 246/246/246
f 247/247/247 249/249/249 248/248/248
f 249/249/249 250/250/250 248/248/248
f 249/249/249 251/251/251 250/250/250
f 251/251/251 252/252/252 250/250/250
f 251/251/251 253/253/253 252/252/252
f 253/253/253 254/254/254 252/252/252
f 253/253/253 255/255/255 254/254/254
f 255/255/255 256/256/256 254/254/254
f 255/255/255 257/257/257 256/256/256
f 257/257/257 258/258/258 256/256/256
f 257/257/257 259/259/259 258/258/258
f 259/259/259 260/260/260 258/258/258
f 263/263/263 262/262/262 261/261/261
f 262/262/262 264/264/264 261/261/261
f 262/262/262 265/265/265 264/264/264
f 265/265/265 266/266/266 264/264/264
f 265/265/265 267/267/267 266/266/266
f 267/267/267 268/268/268 266/266/266
f 267/267/267 269/269/269 268/268/268
f 269/269/269 270/270/270 268/268/268
f 269/269/269 271/271/271 270/270/270
f 271/271/271 272/272/272 270/270/270
f 275/275/275 274/274/274 273/273/273
f 276/276/276 275/275/275 273/273/273
f 273/273/273 274/274/274 277/277/277
f 278/278/278 275/275/275 276/276/276
f 274/274/274 279/279/279 277/277/277
f 280/280/280 278/278/278 276/276/276
f 277/277/277 279/279/279 281/281/281
f 282/282/282 278/278/278 280/280/280
f 279/279/279 283/283/283 281/281/281
f 284/284/284 282/282/282 280/280/280
f 281/281/281 283/283/283 285/285/285
f 286/286/286 282/282/282 284/284/284
f 283/283/283 287/287/287 285/285/285
f 288/288/288 286/286/286 284/284/284
f 285/285/285 287/287/287 289/289/289
f 290/290/290 286/286/286 288/288/288
f 287/287/287 291/291/291 289/289/289
f 292/292/292 290/290/290 288/288/288
f 289/289/289 291/291/291 293/293/293
f 294/294/294 290/290/290 292/292/292
f 291/291/291 295/295/295 293/293/293
f 296/296/296 294/294/294 292/292/292
f 293/293/293 295/295/295 297/297/297
f 298/298/298 294/294/294 296/296/296
f 295/295/295 299/299/299 297/297/297
f 300/300/300 298/298/298 296/296/296
f 297/297/297 299/299/299 301/301/301
f 302/302/302 298/298/298 300/300/300
f 299/299/299 303/303/303 301/301/301
f 304/304/304 302/302/302 300/300/300
f 301/301/301 303/303/303 305/305/305
f 306/306/306 302/302/302 304/304/304
f 303/303/303 307/307/307 305/305/305
f 308/308/308 306/306/306 304/304/304
f 305/305/305 307/307/307 309/309/309
f 310/310/310 306/306/306 308/308/308
f 307/307/307 311/311/311 309/309/309
f 312/312/312 310/310/310 308/308/308
f 309/309/309 311/311/311 312/312/312
f 311/311/311 310/310/310 312/312/312
