# Export from Prisma3D 2.1.1
mtllib New Project.mtl
o stumps_0
v 0.084009 0.650804 0.0004040073
v 0.104807 0.650818 0.02118901
v 0.104807 0.010587 0.02103201
v 0.084009 0.650804 0.0004040073
v 0.104807 0.010587 0.02103201
v 0.08397 0.0106 0.0002070073
v 0.125605 0.650831 0.000404011
v 0.104807 0.010587 0.02103201
v 0.104807 0.650818 0.02118901
v 0.125605 0.650831 0.000404011
v 0.125632 0.0106 0.000207011
v 0.104807 0.010587 0.02103201
v 0.125605 0.650831 0.000404011
v 0.104807 0.0106 -0.02061699
v 0.125632 0.0106 0.000207011
v 0.125605 0.650831 0.000404011
v 0.104807 0.650818 -0.02039399
v 0.104807 0.0106 -0.02061699
v 0.104807 0.650818 -0.02039399
v 0.08397 0.0106 0.0002070073
v 0.104807 0.0106 -0.02061699
v 0.104807 0.650818 -0.02039399
v 0.084009 0.650804 0.0004040073
v 0.08397 0.0106 0.0002070073
v 0.084009 0.706196 0.0004180073
v 0.089304 0.719478 0.0004180078
v 0.104873 0.719478 0.01590801
v 0.084009 0.706196 0.0004180073
v 0.104873 0.719478 0.01590801
v 0.104807 0.706196 0.02120201
v 0.104873 0.719478 0.01590801
v 0.125592 0.706209 0.000418011
v 0.104807 0.706196 0.02120201
v 0.104873 0.719478 0.01590801
v 0.120455 0.718651 0.0004180105
v 0.125592 0.706209 0.000418011
v 0.084009 0.706196 0.0004180073
v 0.104807 0.706196 0.02120201
v 0.104807 0.650818 0.02118901
v 0.084009 0.706196 0.0004180073
v 0.104807 0.650818 0.02118901
v 0.084009 0.650804 0.0004040073
v 0.104807 0.706196 0.02120201
v 0.125592 0.706209 0.000418011
v 0.125605 0.650831 0.000404011
v 0.104807 0.706196 0.02120201
v 0.125605 0.650831 0.000404011
v 0.104807 0.650818 0.02118901
v 0.125592 0.706209 0.000418011
v 0.104807 0.650818 -0.02039399
v 0.125605 0.650831 0.000404011
v 0.125592 0.706209 0.000418011
v 0.104807 0.706209 -0.02036699
v 0.104807 0.650818 -0.02039399
v 0.120455 0.718651 0.0004180105
v 0.104807 0.706209 -0.02036699
v 0.125592 0.706209 0.000418011
v 0.120455 0.718651 0.0004180105
v 0.104873 0.719478 -0.01507299
v 0.104807 0.706209 -0.02036699
v 0.104873 0.719478 -0.01507299
v 0.084009 0.706196 0.0004180073
v 0.104807 0.706209 -0.02036699
v 0.104873 0.719478 -0.01507299
v 0.089304 0.719478 0.0004180078
v 0.084009 0.706196 0.0004180073
v 0.104807 0.706209 -0.02036699
v 0.084009 0.706196 0.0004180073
v 0.084009 0.650804 0.0004040073
v 0.104807 0.706209 -0.02036699
v 0.084009 0.650804 0.0004040073
v 0.104807 0.650818 -0.02039399
v 0.104939 0.722605 0.0004180092
v 0.104873 0.719478 0.01590801
v 0.089304 0.719478 0.0004180078
v 0.104939 0.722605 0.0004180092
v 0.120455 0.718651 0.0004180105
v 0.104873 0.719478 0.01590801
v 0.104939 0.722605 0.0004180092
v 0.104873 0.719478 -0.01507299
v 0.120455 0.718651 0.0004180105
v 0.104939 0.722605 0.0004180092
v 0.089304 0.719478 0.0004180078
v 0.104873 0.719478 -0.01507299
v 0.104807 0.010587 0.02103201
v 0.104807 -0.090841 -2.990838E-06
v 0.08397 0.0106 0.0002070073
v 0.08397 0.0106 0.0002070073
v 0.104807 -0.090841 -2.990838E-06
v 0.104807 0.0106 -0.02061699
v 0.104807 0.0106 -0.02061699
v 0.104807 -0.090841 -2.990838E-06
v 0.125632 0.0106 0.000207011
v 0.125632 0.0106 0.000207011
v 0.104807 -0.090841 -2.990838E-06
v 0.104807 0.010587 0.02103201
v -0.020795 0.651566 0.0004039982
v 2.998148E-06 0.65158 0.021189
v 2.998161E-06 0.010587 0.021032
v -0.020795 0.651566 0.0004039982
v 2.998161E-06 0.010587 0.021032
v -0.020835 0.0106 0.0002069982
v 0.020801 0.651593 0.0004040018
v 2.998161E-06 0.010587 0.021032
v 2.998148E-06 0.65158 0.021189
v 0.020801 0.651593 0.0004040018
v 0.020827 0.0106 0.0002070018
v 2.998161E-06 0.010587 0.021032
v 3.001783E-06 0.65158 -0.020394
v -0.020795 0.651566 0.0004039982
v -0.020835 0.0106 0.0002069982
v 3.001783E-06 0.65158 -0.020394
v -0.020835 0.0106 0.0002069982
v 3.001802E-06 0.0106 -0.020617
v 0.020801 0.651593 0.0004040018
v 3.001783E-06 0.65158 -0.020394
v 3.001802E-06 0.0106 -0.020617
v 0.020801 0.651593 0.0004040018
v 3.001802E-06 0.0106 -0.020617
v 0.020827 0.0106 0.0002070018
v -0.020795 0.706196 0.0004179982
v -0.0155 0.719478 0.0004179986
v 6.899861E-05 0.719478 0.015908
v -0.020795 0.706196 0.0004179982
v 6.899861E-05 0.719478 0.015908
v 2.998147E-06 0.706196 0.021202
v 6.899861E-05 0.719478 0.015908
v 0.020801 0.706209 0.0004180018
v 2.998147E-06 0.706196 0.021202
v 6.899861E-05 0.719478 0.015908
v 0.015651 0.718651 0.0004180014
v 0.020801 0.706209 0.0004180018
v -0.020795 0.706196 0.0004179982
v 2.998147E-06 0.706196 0.021202
v 2.998148E-06 0.65158 0.021189
v -0.020795 0.706196 0.0004179982
v 2.998148E-06 0.65158 0.021189
v -0.020795 0.651566 0.0004039982
v 3.001781E-06 0.706209 -0.020367
v -0.020795 0.706196 0.0004179982
v -0.020795 0.651566 0.0004039982
v 6.900132E-05 0.719478 -0.015073
v -0.020795 0.706196 0.0004179982
v 3.001781E-06 0.706209 -0.020367
v 0.015651 0.718651 0.0004180014
v 6.900132E-05 0.719478 -0.015073
v 3.001781E-06 0.706209 -0.020367
v 0.015651 0.718651 0.0004180014
v 3.001781E-06 0.706209 -0.020367
v 0.020801 0.706209 0.0004180018
v 6.900132E-05 0.719478 -0.015073
v -0.0155 0.719478 0.0004179986
v -0.020795 0.706196 0.0004179982
v 3.001781E-06 0.706209 -0.020367
v -0.020795 0.651566 0.0004039982
v 3.001783E-06 0.65158 -0.020394
v 0.020801 0.706209 0.0004180018
v 3.001781E-06 0.706209 -0.020367
v 3.001783E-06 0.65158 -0.020394
v 0.020801 0.706209 0.0004180018
v 3.001783E-06 0.65158 -0.020394
v 0.020801 0.651593 0.0004040018
v 2.998147E-06 0.706196 0.021202
v 0.020801 0.706209 0.0004180018
v 0.020801 0.651593 0.0004040018
v 2.998147E-06 0.706196 0.021202
v 0.020801 0.651593 0.0004040018
v 2.998148E-06 0.65158 0.021189
v 0.000147 0.722605 0.000418
v 6.899861E-05 0.719478 0.015908
v -0.0155 0.719478 0.0004179986
v 0.000147 0.722605 0.000418
v 0.015651 0.718651 0.0004180014
v 6.899861E-05 0.719478 0.015908
v 0.000147 0.722605 0.000418
v 6.900132E-05 0.719478 -0.015073
v 0.015651 0.718651 0.0004180014
v 0.000147 0.722605 0.000418
v -0.0155 0.719478 0.0004179986
v 6.900132E-05 0.719478 -0.015073
v 2.998161E-06 0.010587 0.021032
v 3E-06 -0.090841 -3E-06
v -0.020835 0.0106 0.0002069982
v -0.020835 0.0106 0.0002069982
v 3E-06 -0.090841 -3E-06
v 3.001802E-06 0.0106 -0.020617
v 3.001802E-06 0.0106 -0.020617
v 3E-06 -0.090841 -3E-06
v 0.020827 0.0106 0.0002070018
v 0.020827 0.0106 0.0002070018
v 3E-06 -0.090841 -3E-06
v 2.998161E-06 0.010587 0.021032
v -0.1256 0.650883 0.000403989
v -0.104802 0.650883 0.02118899
v -0.104802 0.010587 0.02103199
v -0.1256 0.650883 0.000403989
v -0.104802 0.010587 0.02103199
v -0.125626 0.0106 0.000206989
v -0.084004 0.650896 0.0004039927
v -0.104802 0.010587 0.02103199
v -0.104802 0.650883 0.02118899
v -0.084004 0.650896 0.0004039927
v -0.083977 0.0106 0.0002069927
v -0.104802 0.010587 0.02103199
v -0.104802 0.650883 -0.02039401
v -0.1256 0.650883 0.000403989
v -0.125626 0.0106 0.000206989
v -0.104802 0.650883 -0.02039401
v -0.125626 0.0106 0.000206989
v -0.104802 0.0106 -0.02061701
v -0.084004 0.650896 0.0004039927
v -0.104802 0.650883 -0.02039401
v -0.104802 0.0106 -0.02061701
v -0.084004 0.650896 0.0004039927
v -0.104802 0.0106 -0.02061701
v -0.083977 0.0106 0.0002069927
v -0.1256 0.706196 0.000417989
v -0.104802 0.650883 0.02118899
v -0.1256 0.650883 0.000403989
v -0.1256 0.706196 0.000417989
v -0.104802 0.706196 0.02120199
v -0.104802 0.650883 0.02118899
v -0.104802 0.706196 0.02120199
v -0.084004 0.650896 0.0004039927
v -0.104802 0.650883 0.02118899
v -0.1256 0.706196 0.000417989
v -0.104723 0.719478 0.01590799
v -0.104802 0.706196 0.02120199
v -0.1256 0.706196 0.000417989
v -0.120305 0.719478 0.0004179895
v -0.104723 0.719478 0.01590799
v -0.104723 0.719478 0.01590799
v -0.084004 0.706209 0.0004179927
v -0.104802 0.706196 0.02120199
v -0.104802 0.706196 0.02120199
v -0.084004 0.706209 0.0004179927
v -0.084004 0.650896 0.0004039927
v -0.104723 0.719478 0.01590799
v -0.089154 0.718651 0.0004179922
v -0.084004 0.706209 0.0004179927
v -0.104802 0.706209 -0.02036701
v -0.1256 0.706196 0.000417989
v -0.1256 0.650883 0.000403989
v -0.104802 0.706209 -0.02036701
v -0.1256 0.650883 0.000403989
v -0.104802 0.650883 -0.02039401
v -0.104723 0.719478 -0.01507301
v -0.1256 0.706196 0.000417989
v -0.104802 0.706209 -0.02036701
v -0.089154 0.718651 0.0004179922
v -0.104723 0.719478 -0.01507301
v -0.104802 0.706209 -0.02036701
v -0.089154 0.718651 0.0004179922
v -0.104802 0.706209 -0.02036701
v -0.084004 0.706209 0.0004179927
v -0.084004 0.706209 0.0004179927
v -0.104802 0.706209 -0.02036701
v -0.104802 0.650883 -0.02039401
v -0.084004 0.706209 0.0004179927
v -0.104802 0.650883 -0.02039401
v -0.084004 0.650896 0.0004039927
v -0.104723 0.719478 -0.01507301
v -0.120305 0.719478 0.0004179895
v -0.1256 0.706196 0.000417989
v -0.104657 0.722605 0.0004179909
v -0.104723 0.719478 0.01590799
v -0.120305 0.719478 0.0004179895
v -0.104657 0.722605 0.0004179909
v -0.089154 0.718651 0.0004179922
v -0.104723 0.719478 0.01590799
v -0.104657 0.722605 0.0004179909
v -0.104723 0.719478 -0.01507301
v -0.089154 0.718651 0.0004179922
v -0.104657 0.722605 0.0004179909
v -0.120305 0.719478 0.0004179895
v -0.104723 0.719478 -0.01507301
v -0.104802 0.010587 0.02103199
v -0.104802 -0.090841 -3.009162E-06
v -0.125626 0.0106 0.000206989
v -0.125626 0.0106 0.000206989
v -0.104802 -0.090841 -3.009162E-06
v -0.104802 0.0106 -0.02061701
v -0.104802 0.0106 -0.02061701
v -0.104802 -0.090841 -3.009162E-06
v -0.083977 0.0106 0.0002069927
v -0.083977 0.0106 0.0002069927
v -0.104802 -0.090841 -3.009162E-06
v -0.104802 0.010587 0.02103199
v -0.12133 0.728176 0.0004179894
v -0.12133 0.722198 0.006381989
v -0.12133 0.722198 0.0004179894
v -0.12133 0.722198 0.006381989
v -0.12133 0.716233 0.0004179894
v -0.12133 0.722198 0.0004179894
v -0.12133 0.716233 0.0004179894
v -0.12133 0.722198 -0.005560011
v -0.12133 0.722198 0.0004179894
v -0.12133 0.722198 -0.005560011
v -0.12133 0.728176 0.0004179894
v -0.12133 0.722198 0.0004179894
v -0.085738 0.728176 0.0004179925
v -0.085738 0.722198 0.006381993
v -0.12133 0.722198 0.006381989
v -0.085738 0.728176 0.0004179925
v -0.12133 0.722198 0.006381989
v -0.12133 0.728176 0.0004179894
v -0.085738 0.722198 -0.005560007
v -0.085738 0.728176 0.0004179925
v -0.12133 0.728176 0.0004179894
v -0.085738 0.722198 -0.005560007
v -0.12133 0.728176 0.0004179894
v -0.12133 0.722198 -0.005560011
v -0.085738 0.716233 0.0004179925
v -0.085738 0.722198 -0.005560007
v -0.12133 0.722198 -0.005560011
v -0.085738 0.716233 0.0004179925
v -0.12133 0.722198 -0.005560011
v -0.12133 0.716233 0.0004179894
v -0.085738 0.722198 0.006381993
v -0.085738 0.716233 0.0004179925
v -0.12133 0.716233 0.0004179894
v -0.085738 0.722198 0.006381993
v -0.12133 0.716233 0.0004179894
v -0.12133 0.722198 0.006381989
v -0.085738 0.735258 0.0004179925
v -0.085738 0.722198 0.01346399
v -0.085738 0.722198 0.006381993
v -0.085738 0.735258 0.0004179925
v -0.085738 0.722198 0.006381993
v -0.085738 0.728176 0.0004179925
v -0.085738 0.735258 0.0004179925
v -0.020191 0.722198 0.013464
v -0.085738 0.722198 0.01346399
v -0.085738 0.735258 0.0004179925
v -0.020191 0.735258 0.0004179982
v -0.020191 0.722198 0.013464
v -0.020191 0.728307 0.0004179982
v -0.020191 0.722198 0.013464
v -0.020191 0.735258 0.0004179982
v -0.020191 0.728307 0.0004179982
v -0.020191 0.722198 0.006526998
v -0.020191 0.722198 0.013464
v -0.085738 0.722198 -0.01264201
v -0.085738 0.735258 0.0004179925
v -0.085738 0.728176 0.0004179925
v -0.085738 0.722198 -0.01264201
v -0.085738 0.728176 0.0004179925
v -0.085738 0.722198 -0.005560007
v -0.085738 0.709152 0.0004179925
v -0.085738 0.722198 -0.01264201
v -0.085738 0.722198 -0.005560007
v -0.085738 0.709152 0.0004179925
v -0.085738 0.722198 -0.005560007
v -0.085738 0.716233 0.0004179925
v -0.085738 0.722198 0.01346399
v -0.085738 0.709152 0.0004179925
v -0.085738 0.716233 0.0004179925
v -0.085738 0.722198 0.01346399
v -0.085738 0.716233 0.0004179925
v -0.085738 0.722198 0.006381993
v -0.020191 0.722198 0.013464
v -0.085738 0.709152 0.0004179925
v -0.085738 0.722198 0.01346399
v -0.020191 0.722198 0.013464
v -0.020191 0.709152 0.0004179982
v -0.085738 0.709152 0.0004179925
v -0.020191 0.709152 0.0004179982
v -0.085738 0.722198 -0.01264201
v -0.085738 0.709152 0.0004179925
v -0.020191 0.722198 0.006526998
v -0.020191 0.709152 0.0004179982
v -0.020191 0.722198 0.013464
v -0.020191 0.722198 0.006526998
v -0.020191 0.716089 0.0004179982
v -0.020191 0.709152 0.0004179982
v -0.020191 0.709152 0.0004179982
v -0.020191 0.722198 -0.012642
v -0.085738 0.722198 -0.01264201
v -0.020191 0.716089 0.0004179982
v -0.020191 0.722198 -0.012642
v -0.020191 0.709152 0.0004179982
v -0.020191 0.716089 0.0004179982
v -0.020191 0.722198 -0.005692002
v -0.020191 0.722198 -0.012642
v -0.020191 0.722198 -0.005692002
v -0.020191 0.735258 0.0004179982
v -0.020191 0.722198 -0.012642
v -0.020191 0.722198 -0.012642
v -0.020191 0.735258 0.0004179982
v -0.085738 0.735258 0.0004179925
v -0.020191 0.722198 -0.012642
v -0.085738 0.735258 0.0004179925
v -0.085738 0.722198 -0.01264201
v -0.020191 0.722198 -0.005692002
v -0.020191 0.728307 0.0004179982
v -0.020191 0.735258 0.0004179982
v -0.001219 0.728307 0.0004179999
v -0.001219001 0.722198 0.006527
v -0.020191 0.722198 0.006526998
v -0.001219 0.728307 0.0004179999
v -0.020191 0.722198 0.006526998
v -0.020191 0.728307 0.0004179982
v -0.001219 0.722198 -0.005692
v -0.001219 0.728307 0.0004179999
v -0.020191 0.728307 0.0004179982
v -0.001219 0.722198 -0.005692
v -0.020191 0.728307 0.0004179982
v -0.020191 0.722198 -0.005692002
v -0.001219 0.716089 0.0004179999
v -0.001219 0.722198 -0.005692
v -0.020191 0.722198 -0.005692002
v -0.001219 0.716089 0.0004179999
v -0.020191 0.722198 -0.005692002
v -0.020191 0.716089 0.0004179982
v -0.001219001 0.722198 0.006527
v -0.001219 0.716089 0.0004179999
v -0.020191 0.716089 0.0004179982
v -0.001219001 0.722198 0.006527
v -0.020191 0.716089 0.0004179982
v -0.020191 0.722198 0.006526998
v -0.001219 0.722198 0.0004179999
v -0.001219001 0.722198 0.006527
v -0.001219 0.728307 0.0004179999
v -0.001219 0.722198 0.0004179999
v -0.001219 0.716089 0.0004179999
v -0.001219001 0.722198 0.006527
v -0.001219 0.722198 0.0004179999
v -0.001219 0.722198 -0.005692
v -0.001219 0.716089 0.0004179999
v -0.001219 0.722198 0.0004179999
v -0.001219 0.728307 0.0004179999
v -0.001219 0.722198 -0.005692
v 0.001225 0.728307 0.0004180001
v 0.001224999 0.722343 0.006382
v 0.001225 0.722343 0.0004180001
v 0.001224999 0.722343 0.006382
v 0.001225 0.716365 0.0004180001
v 0.001225 0.722343 0.0004180001
v 0.001225 0.716365 0.0004180001
v 0.001225 0.722343 -0.00556
v 0.001225 0.722343 0.0004180001
v 0.001225 0.722343 -0.00556
v 0.001225 0.728307 0.0004180001
v 0.001225 0.722343 0.0004180001
v 0.021589 0.728307 0.0004180019
v 0.021589 0.722343 0.006382002
v 0.001224999 0.722343 0.006382
v 0.021589 0.728307 0.0004180019
v 0.001224999 0.722343 0.006382
v 0.001225 0.728307 0.0004180001
v 0.021589 0.722343 -0.005559998
v 0.021589 0.728307 0.0004180019
v 0.001225 0.728307 0.0004180001
v 0.021589 0.722343 -0.005559998
v 0.001225 0.728307 0.0004180001
v 0.001225 0.722343 -0.00556
v 0.021589 0.716365 0.0004180019
v 0.021589 0.722343 -0.005559998
v 0.001225 0.722343 -0.00556
v 0.021589 0.716365 0.0004180019
v 0.001225 0.722343 -0.00556
v 0.001225 0.716365 0.0004180001
v 0.021589 0.722343 0.006382002
v 0.021589 0.716365 0.0004180019
v 0.001225 0.716365 0.0004180001
v 0.021589 0.722343 0.006382002
v 0.001225 0.716365 0.0004180001
v 0.001224999 0.722343 0.006382
v 0.021589 0.735389 0.0004180019
v 0.021589 0.722343 0.013464
v 0.021589 0.722343 0.006382002
v 0.021589 0.735389 0.0004180019
v 0.021589 0.722343 0.006382002
v 0.021589 0.728307 0.0004180019
v 0.021589 0.735389 0.0004180019
v 0.089383 0.722343 0.01346401
v 0.021589 0.722343 0.013464
v 0.021589 0.735389 0.0004180019
v 0.089383 0.735389 0.0004180078
v 0.089383 0.722343 0.01346401
v 0.089383 0.728452 0.0004180078
v 0.089383 0.722343 0.01346401
v 0.089383 0.735389 0.0004180078
v 0.089383 0.728452 0.0004180078
v 0.089383 0.722343 0.006527008
v 0.089383 0.722343 0.01346401
v 0.021589 0.722343 -0.012642
v 0.021589 0.735389 0.0004180019
v 0.021589 0.728307 0.0004180019
v 0.021589 0.722343 -0.012642
v 0.021589 0.728307 0.0004180019
v 0.021589 0.722343 -0.005559998
v 0.021589 0.709283 0.0004180019
v 0.021589 0.722343 -0.012642
v 0.021589 0.722343 -0.005559998
v 0.021589 0.709283 0.0004180019
v 0.021589 0.722343 -0.005559998
v 0.021589 0.716365 0.0004180019
v 0.021589 0.722343 0.013464
v 0.021589 0.709283 0.0004180019
v 0.021589 0.716365 0.0004180019
v 0.021589 0.722343 0.013464
v 0.021589 0.716365 0.0004180019
v 0.021589 0.722343 0.006382002
v 0.089383 0.722343 0.01346401
v 0.021589 0.709283 0.0004180019
v 0.021589 0.722343 0.013464
v 0.089383 0.722343 0.01346401
v 0.089383 0.709283 0.0004180078
v 0.021589 0.709283 0.0004180019
v 0.089383 0.709283 0.0004180078
v 0.021589 0.722343 -0.012642
v 0.021589 0.709283 0.0004180019
v 0.089383 0.722343 0.006527008
v 0.089383 0.709283 0.0004180078
v 0.089383 0.722343 0.01346401
v 0.089383 0.722343 0.006527008
v 0.089383 0.716233 0.0004180078
v 0.089383 0.709283 0.0004180078
v 0.089383 0.709283 0.0004180078
v 0.089383 0.722343 -0.01264199
v 0.021589 0.722343 -0.012642
v 0.089383 0.716233 0.0004180078
v 0.089383 0.722343 -0.01264199
v 0.089383 0.709283 0.0004180078
v 0.089383 0.716233 0.0004180078
v 0.089383 0.722343 -0.005691992
v 0.089383 0.722343 -0.01264199
v 0.089383 0.722343 -0.005691992
v 0.089383 0.735389 0.0004180078
v 0.089383 0.722343 -0.01264199
v 0.089383 0.722343 -0.01264199
v 0.089383 0.735389 0.0004180078
v 0.021589 0.735389 0.0004180019
v 0.089383 0.722343 -0.01264199
v 0.021589 0.735389 0.0004180019
v 0.021589 0.722343 -0.012642
v 0.089383 0.722343 -0.005691992
v 0.089383 0.728452 0.0004180078
v 0.089383 0.735389 0.0004180078
v 0.121335 0.728452 0.0004180106
v 0.121335 0.722343 0.006527011
v 0.089383 0.722343 0.006527008
v 0.121335 0.728452 0.0004180106
v 0.089383 0.722343 0.006527008
v 0.089383 0.728452 0.0004180078
v 0.121335 0.722343 -0.005691989
v 0.121335 0.728452 0.0004180106
v 0.089383 0.728452 0.0004180078
v 0.121335 0.722343 -0.005691989
v 0.089383 0.728452 0.0004180078
v 0.089383 0.722343 -0.005691992
v 0.121335 0.716233 0.0004180106
v 0.121335 0.722343 -0.005691989
v 0.089383 0.722343 -0.005691992
v 0.121335 0.716233 0.0004180106
v 0.089383 0.722343 -0.005691992
v 0.089383 0.716233 0.0004180078
v 0.121335 0.722343 0.006527011
v 0.121335 0.716233 0.0004180106
v 0.089383 0.716233 0.0004180078
v 0.121335 0.722343 0.006527011
v 0.089383 0.716233 0.0004180078
v 0.089383 0.722343 0.006527008
v 0.121335 0.722343 0.0004180106
v 0.121335 0.722343 0.006527011
v 0.121335 0.728452 0.0004180106
v 0.121335 0.722343 0.0004180106
v 0.121335 0.716233 0.0004180106
v 0.121335 0.722343 0.006527011
v 0.121335 0.722343 0.0004180106
v 0.121335 0.722343 -0.005691989
v 0.121335 0.716233 0.0004180106
v 0.121335 0.722343 0.0004180106
v 0.121335 0.728452 0.0004180106
v 0.121335 0.722343 -0.005691989
vn -0.7068915 -0.0001756069 0.7073219
vn -0.70688 -0.0001727564 0.7073334
vn -0.706077 -0.04860545 0.706465
vn -0.7068915 -0.0001756069 0.7073219
vn -0.706077 -0.04860545 0.706465
vn -0.7050481 -0.07284272 0.7054086
vn 0.706992 -0.0001349792 0.7072216
vn 0.7062125 -0.04859612 0.7063302
vn 0.7068856 -0.0001734535 0.7073278
vn 0.706992 -0.0001349792 0.7072216
vn 0.7071068 -0.0001877561 0.7071068
vn 0.7062125 -0.04859612 0.7063302
vn 0.7070982 0.0002468516 -0.7071154
vn 0.7070982 0.0002468516 -0.7071154
vn 0.7052965 -0.07117551 -0.7053304
vn 0.7070982 0.0002468516 -0.7071154
vn 0.7071066 0.0003119411 -0.7071068
vn 0.7070982 0.0002468516 -0.7071154
vn -0.7069964 0.0002535175 -0.7072171
vn -0.7069964 0.0002535175 -0.7072171
vn -0.7050923 -0.07119623 -0.7055324
vn -0.7069964 0.0002535175 -0.7072171
vn -0.7071068 0.0003026652 -0.7071067
vn -0.7069964 0.0002535175 -0.7072171
vn -0.6997781 0.1375153 0.7009994
vn -0.6789763 0.2706805 0.6824391
vn -0.6793492 0.2725838 0.6813095
vn -0.6997781 0.1375153 0.7009994
vn -0.6793492 0.2725838 0.6813095
vn -0.7000564 0.1384978 0.7005279
vn 0.6824883 0.2752633 0.6770819
vn 0.6966977 0.1850988 0.6930735
vn 0.7041191 0.09006818 0.7043464
vn 0.6824883 0.2752633 0.6770819
vn 0.6838229 0.2823339 0.6728104
vn 0.6966977 0.1850988 0.6930735
vn -0.6997781 0.1375153 0.7009994
vn -0.7000564 0.1384978 0.7005279
vn -0.70688 -0.0001727564 0.7073334
vn -0.6997781 0.1375153 0.7009994
vn -0.70688 -0.0001727564 0.7073334
vn -0.7068915 -0.0001756069 0.7073219
vn 0.7041191 0.09006818 0.7043464
vn 0.6966977 0.1850988 0.6930735
vn 0.706992 -0.0001349792 0.7072216
vn 0.7041191 0.09006818 0.7043464
vn 0.706992 -0.0001349792 0.7072216
vn 0.7068856 -0.0001660405 0.7073279
vn 0.7071067 0.0003447618 -0.7071068
vn 0.7071066 0.0003119411 -0.7071068
vn 0.7071066 0.0003448632 -0.7071069
vn 0.7071067 0.0003447618 -0.7071068
vn 0.6967563 0.1839152 -0.6933296
vn 0.7071066 0.0003119411 -0.7071068
vn 0.6827171 0.2733637 -0.6776206
vn 0.6967563 0.1839152 -0.6933296
vn 0.6787714 0.2802482 -0.6787713
vn 0.6827171 0.2733637 -0.6776206
vn 0.6866189 0.2664617 -0.6764265
vn 0.6967563 0.1839152 -0.6933296
vn -0.6793893 0.2726936 -0.6812256
vn -0.6793893 0.2726936 -0.6812256
vn -0.7039562 0.0925331 -0.7041898
vn -0.6793893 0.2726936 -0.6812256
vn -0.6789966 0.2706887 -0.6824157
vn -0.6793893 0.2726936 -0.6812256
vn -0.7039562 0.0925331 -0.7041898
vn -0.7068858 0.0001787806 -0.7073277
vn -0.7068858 0.0001787806 -0.7073277
vn -0.7039562 0.0925331 -0.7041898
vn -0.7071068 0.0003026652 -0.7071067
vn -0.7071068 0.0003446717 -0.7071066
vn 0.0260707 0.9996601 6.280402E-06
vn 0.02555497 0.9798852 0.1979191
vn -0.1924125 0.9620687 0.1933938
vn 0.0260707 0.9996601 6.280402E-06
vn 0.2469413 0.9690304 6.120198E-06
vn 0.02555497 0.9798852 0.1979191
vn 0.0260707 0.9996601 6.280402E-06
vn 0.02555506 0.9798876 -0.1979068
vn 0.2469413 0.9690304 6.120198E-06
vn 0.0260707 0.9996601 6.280402E-06
vn -0.1924129 0.9620711 -0.1933818
vn 0.02555506 0.9798876 -0.1979068
vn -0.706077 -0.04860545 0.706465
vn -0.6994647 -0.1451257 0.6997769
vn -0.7050481 -0.07284272 0.7054086
vn -0.6996951 -0.142275 -0.7001318
vn -0.6996951 -0.142275 -0.7001318
vn -0.7050923 -0.07119623 -0.7055324
vn 0.6999007 -0.1422349 -0.6999345
vn 0.6999007 -0.1422349 -0.6999345
vn 0.7052965 -0.07117551 -0.7053304
vn 0.6996701 -0.1450848 0.6995799
vn 0.6996701 -0.1450848 0.6995799
vn 0.7062125 -0.04859612 0.7063302
vn -0.7068858 -0.0001759319 0.7073276
vn -0.70688 -0.0001742901 0.7073334
vn -0.7060657 -0.0486061 0.7064763
vn -0.7068858 -0.0001759319 0.7073276
vn -0.7060657 -0.0486061 0.7064763
vn -0.705031 -0.0728438 0.7054255
vn 0.706965 -0.0001767429 0.7072485
vn 0.706224 -0.04859519 0.7063188
vn 0.7068857 -0.0001732481 0.7073278
vn 0.706965 -0.0001767429 0.7072485
vn 0.7071238 -0.0001886329 0.7070897
vn 0.706224 -0.04859519 0.7063188
vn -0.7070275 0.000285668 -0.707186
vn -0.7071068 0.0003054572 -0.7071068
vn -0.706988 0.0002537717 -0.7072256
vn -0.7070275 0.000285668 -0.707186
vn -0.706988 0.0002537717 -0.7072256
vn -0.7050752 -0.07119805 -0.7055492
vn 0.7071068 0.0002244196 -0.7071068
vn 0.7071068 0.0002136296 -0.7071068
vn 0.7071068 0.0002460035 -0.7071067
vn 0.7071068 0.0002244196 -0.7071068
vn 0.7071068 0.0002460035 -0.7071067
vn 0.7053136 -0.07117452 -0.7053133
vn -0.6997782 0.137514 0.7009996
vn -0.6789764 0.2706806 0.6824391
vn -0.6793493 0.2725837 0.6813095
vn -0.6997782 0.137514 0.7009996
vn -0.6793493 0.2725837 0.6813095
vn -0.7000566 0.1384965 0.700528
vn 0.6823154 0.2756365 0.6771043
vn 0.6823154 0.2756365 0.6771043
vn 0.7039751 0.09003855 0.7044943
vn 0.6823154 0.2756365 0.6771043
vn 0.6837022 0.2829986 0.6726539
vn 0.6823154 0.2756365 0.6771043
vn -0.6997782 0.137514 0.7009996
vn -0.7000566 0.1384965 0.700528
vn -0.70688 -0.0001742901 0.7073334
vn -0.6997782 0.137514 0.7009996
vn -0.70688 -0.0001742901 0.7073334
vn -0.7068858 -0.0001759319 0.7073276
vn -0.7039559 0.09253544 -0.7041898
vn -0.6944205 0.1834051 -0.6958038
vn -0.7068856 0.0001812587 -0.7073279
vn -0.6793894 0.2726935 -0.6812257
vn -0.6944205 0.1834051 -0.6958038
vn -0.7039559 0.09253544 -0.7041898
vn 0.6825536 0.2736509 -0.6776693
vn 0.6866188 0.2664619 -0.6764265
vn 0.6825536 0.2736509 -0.6776693
vn 0.6825536 0.2736509 -0.6776693
vn 0.6825536 0.2736509 -0.6776693
vn 0.7037879 0.09463232 -0.7040791
vn -0.6793894 0.2726935 -0.6812257
vn -0.6789967 0.2706888 -0.6824157
vn -0.6944205 0.1834051 -0.6958038
vn -0.7039559 0.09253544 -0.7041898
vn -0.7071068 0.0003054572 -0.7071068
vn -0.7070275 0.000285668 -0.707186
vn 0.7037879 0.09463232 -0.7040791
vn 0.7068858 0.0003495757 -0.7073277
vn 0.7068858 0.0003495757 -0.7073277
vn 0.7037879 0.09463232 -0.7040791
vn 0.7071068 0.0002136296 -0.7071068
vn 0.7071068 0.0002244196 -0.7071068
vn 0.7039751 0.09003855 0.7044943
vn 0.7068686 -0.0001813164 0.7073448
vn 0.7068686 -0.0001813164 0.7073448
vn 0.7039751 0.09003855 0.7044943
vn 0.706965 -0.0001767429 0.7072485
vn 0.7068857 -0.0001683477 0.7073278
vn 0.0262299 0.9996559 6.284345E-06
vn 0.02571091 0.9798773 0.1979381
vn -0.1922759 0.9621237 0.1932565
vn 0.0262299 0.9996559 6.284345E-06
vn 0.2471207 0.9689847 6.158378E-06
vn 0.02571091 0.9798773 0.1979381
vn 0.0262299 0.9996559 6.284345E-06
vn 0.02571101 0.9798797 -0.1979258
vn 0.2471207 0.9689847 6.158378E-06
vn 0.0262299 0.9996559 6.284345E-06
vn -0.1922763 0.962126 -0.1932445
vn 0.02571101 0.9798797 -0.1979258
vn -0.7060657 -0.0486061 0.7064763
vn -0.6994475 -0.1451291 0.6997934
vn -0.705031 -0.0728438 0.7054255
vn -0.6996779 -0.1422783 -0.7001483
vn -0.6996779 -0.1422783 -0.7001483
vn -0.7050752 -0.07119805 -0.7055492
vn 0.6999181 -0.1422315 -0.6999179
vn 0.6999181 -0.1422315 -0.6999179
vn 0.7053136 -0.07117452 -0.7053133
vn 0.6996875 -0.1450814 0.6995633
vn 0.6996875 -0.1450814 0.6995633
vn 0.706224 -0.04859519 0.7063188
vn -0.7069651 -0.0001804374 0.7072484
vn -0.7068801 -0.0001729067 0.7073334
vn -0.706224 -0.04859533 0.7063187
vn -0.7069651 -0.0001804374 0.7072484
vn -0.706224 -0.04859533 0.7063187
vn -0.7052688 -0.07282751 0.7051894
vn 0.7069368 -0.0001766104 0.7072767
vn 0.7062127 -0.0485961 0.7063301
vn 0.7068858 -0.0001734361 0.7073277
vn 0.7069368 -0.0001766104 0.7072767
vn 0.7071068 -0.0001877378 0.7071068
vn 0.7062127 -0.0485961 0.7063301
vn -0.7071068 0.0002792063 -0.7071068
vn -0.7071068 0.0002956718 -0.7071068
vn -0.7071068 0.000246276 -0.7071068
vn -0.7071068 0.0002792063 -0.7071068
vn -0.7071068 0.000246276 -0.7071068
vn -0.7053134 -0.07117438 -0.7053135
vn 0.7070983 0.000246827 -0.7071153
vn 0.7071068 0.0002126214 -0.7071068
vn 0.7070983 0.000246827 -0.7071153
vn 0.7070983 0.000246827 -0.7071153
vn 0.7070983 0.000246827 -0.7071153
vn 0.7052966 -0.07117552 -0.7053303
vn -0.6996934 0.1376463 0.7010582
vn -0.7068801 -0.0001729067 0.7073334
vn -0.7069651 -0.0001804374 0.7072484
vn -0.6996934 0.1376463 0.7010582
vn -0.7000251 0.1388142 0.7004966
vn -0.7068801 -0.0001729067 0.7073334
vn 0.7068858 -0.0001662299 0.7073277
vn 0.7069368 -0.0001766104 0.7072767
vn 0.7068858 -0.0001662299 0.7073277
vn -0.6996934 0.1376463 0.7010582
vn -0.6791558 0.2728387 0.6814003
vn -0.7000251 0.1388142 0.7004966
vn -0.6996934 0.1376463 0.7010582
vn -0.6787124 0.270575 0.6827435
vn -0.6791558 0.2728387 0.6814003
vn 0.682511 0.2753828 0.6770104
vn 0.6966514 0.1851263 0.6931126
vn 0.7003587 0.134966 0.700915
vn 0.7003587 0.134966 0.700915
vn 0.6966514 0.1851263 0.6931126
vn 0.7069368 -0.0001766104 0.7072767
vn 0.682511 0.2753828 0.6770104
vn 0.6839662 0.2831078 0.6723394
vn 0.6966514 0.1851263 0.6931126
vn -0.7039424 0.09274385 -0.704176
vn -0.694302 0.1835789 -0.695876
vn -0.7068858 0.0001790259 -0.7073277
vn -0.7039424 0.09274385 -0.704176
vn -0.7071068 0.0002956718 -0.7071068
vn -0.7071068 0.0002792063 -0.7071068
vn -0.6791961 0.2729487 -0.6813162
vn -0.694302 0.1835789 -0.695876
vn -0.7039424 0.09274385 -0.704176
vn 0.6827597 0.2732888 -0.6776079
vn 0.687026 0.2657358 -0.6762986
vn 0.6827597 0.2732888 -0.6776079
vn 0.6827597 0.2732888 -0.6776079
vn 0.6827597 0.2732888 -0.6776079
vn 0.7037879 0.09463005 -0.7040793
vn 0.7037879 0.09463005 -0.7040793
vn 0.7068857 0.0003451694 -0.7073277
vn 0.7068857 0.0003451694 -0.7073277
vn 0.7037879 0.09463005 -0.7040793
vn 0.7071068 0.0002126214 -0.7071068
vn 0.7071068 0.0001789678 -0.7071068
vn -0.6791961 0.2729487 -0.6813162
vn -0.6787328 0.2705832 -0.6827201
vn -0.694302 0.1835789 -0.695876
vn 0.02625117 0.9996554 6.264855E-06
vn 0.02573186 0.9798806 0.1979189
vn -0.1922585 0.9620982 0.1934004
vn 0.02625117 0.9996554 6.264855E-06
vn 0.2471356 0.9689809 6.105E-06
vn 0.02573186 0.9798806 0.1979189
vn 0.02625117 0.9996554 6.264855E-06
vn 0.02573196 0.9798831 -0.1979066
vn 0.2471356 0.9689809 6.105E-06
vn 0.02625117 0.9996554 6.264855E-06
vn -0.192259 0.9621006 -0.1933884
vn 0.02573196 0.9798831 -0.1979066
vn -0.706224 -0.04859533 0.7063187
vn -0.6996875 -0.1450814 0.6995633
vn -0.7052688 -0.07282751 0.7051894
vn -0.699918 -0.1422315 -0.699918
vn -0.699918 -0.1422315 -0.699918
vn -0.7053134 -0.07117438 -0.7053135
vn 0.6999009 -0.1422349 -0.6999343
vn 0.6999009 -0.1422349 -0.6999343
vn 0.7052966 -0.07117552 -0.7053303
vn 0.6996704 -0.1450848 0.6995798
vn 0.6996704 -0.1450848 0.6995798
vn 0.7062127 -0.0485961 0.7063301
vn -1 0 0
vn -1 0 0
vn -1 0 0
vn -1 0 0
vn -1 0 0
vn -1 0 0
vn -1 0 0
vn -1 0 0
vn -1 0 0
vn -1 0 0
vn -1 0 0
vn -1 0 0
vn -6.503771E-08 0.7062781 0.7079346
vn -6.619548E-08 0.7062781 0.7079346
vn -6.503771E-08 0.7062781 0.7079346
vn -6.503771E-08 0.7062781 0.7079346
vn -6.503771E-08 0.7062781 0.7079346
vn -6.387994E-08 0.706278 0.7079346
vn 6.243729E-08 0.7071075 -0.7071061
vn 6.128088E-08 0.7071075 -0.7071061
vn 6.128088E-08 0.7071075 -0.7071061
vn 6.243729E-08 0.7071075 -0.7071061
vn 6.359371E-08 0.7071075 -0.7071061
vn 6.359371E-08 0.7071075 -0.7071061
vn 6.239037E-08 -0.7078764 -0.7063363
vn 6.354552E-08 -0.7078764 -0.7063363
vn 6.354552E-08 -0.7078764 -0.7063363
vn 6.239037E-08 -0.7078764 -0.7063363
vn 6.123522E-08 -0.7078764 -0.7063363
vn 6.123522E-08 -0.7078764 -0.7063363
vn -6.499069E-08 -0.7070479 0.7071657
vn -6.383419E-08 -0.7070479 0.7071657
vn -6.383419E-08 -0.7070479 0.7071657
vn -6.499069E-08 -0.7070479 0.7071657
vn -6.61472E-08 -0.7070479 0.7071657
vn -6.61472E-08 -0.7070479 0.7071657
vn -1 0 0
vn -1 0 0
vn -1 0 0
vn -1 0 0
vn -1 0 0
vn -1 0 0
vn -6.137377E-08 0.7067282 0.7074852
vn -6.137377E-08 0.7067282 0.7074852
vn -6.085021E-08 0.7067282 0.7074852
vn -6.137377E-08 0.7067282 0.7074852
vn -6.189732E-08 0.7067282 0.7074852
vn -6.137377E-08 0.7067282 0.7074852
vn 1 8.950293E-08 1.370947E-07
vn 1 4.759183E-08 2.265976E-07
vn 1 -6.945424E-15 1.427752E-07
vn 1 8.950293E-08 1.370947E-07
vn 1 4.759183E-08 1.790058E-07
vn 1 4.759183E-08 2.265976E-07
vn -1 0 0
vn -1 0 0
vn -1 0 0
vn -1 0 0
vn -1 0 0
vn -1 0 0
vn -1 0 0
vn -1 0 0
vn -1 0 0
vn -1 0 0
vn -1 0 0
vn -1 0 0
vn -1 0 0
vn -1 0 0
vn -1 0 0
vn -1 0 0
vn -1 0 0
vn -1 0 0
vn -6.135122E-08 -0.7071061 0.7071075
vn -6.135122E-08 -0.7071061 0.7071075
vn -6.082794E-08 -0.7071061 0.7071075
vn -6.135122E-08 -0.7071061 0.7071075
vn -6.18745E-08 -0.7071061 0.7071075
vn -6.135122E-08 -0.7071061 0.7071075
vn 6.133019E-08 -0.7074852 -0.7067282
vn 6.133019E-08 -0.7074852 -0.7067282
vn 6.185319E-08 -0.7074852 -0.7067282
vn 1 4.759183E-08 1.790058E-07
vn 1 -4.19111E-08 1.370436E-07
vn 1 4.759183E-08 2.265976E-07
vn 1 4.759183E-08 1.790058E-07
vn 1 8.935015E-08 1.368762E-07
vn 1 -4.19111E-08 1.370436E-07
vn 6.133019E-08 -0.7074852 -0.7067282
vn 6.080719E-08 -0.7074852 -0.7067282
vn 6.133019E-08 -0.7074852 -0.7067282
vn 1 8.935015E-08 1.368762E-07
vn 1 4.755528E-08 2.262117E-07
vn 1 -4.19111E-08 1.370436E-07
vn 1 8.935015E-08 1.368762E-07
vn 1 4.755528E-08 1.78671E-07
vn 1 4.755528E-08 2.262117E-07
vn 1 4.755528E-08 1.78671E-07
vn 1 -6.26923E-08 1.340032E-07
vn 1 4.755528E-08 2.262117E-07
vn 5.619228E-08 0.7071075 -0.7071061
vn 5.671555E-08 0.7071075 -0.7071061
vn 5.671555E-08 0.7071075 -0.7071061
vn 5.619228E-08 0.7071075 -0.7071061
vn 5.5669E-08 0.7071075 -0.7071061
vn 5.5669E-08 0.7071075 -0.7071061
vn 1 4.755528E-08 1.78671E-07
vn 1 8.950293E-08 1.370947E-07
vn 1 -6.26923E-08 1.340032E-07
vn -7.103989E-08 0.7071068 0.7071068
vn -7.357093E-08 0.7071068 0.7071068
vn -7.103989E-08 0.7071068 0.7071068
vn -7.103989E-08 0.7071068 0.7071068
vn -7.103989E-08 0.7071068 0.7071068
vn -6.850885E-08 0.7071068 0.7071068
vn 7.103669E-08 0.7071648 -0.7070489
vn 6.850586E-08 0.7071648 -0.7070489
vn 6.850586E-08 0.7071648 -0.7070489
vn 7.103669E-08 0.7071648 -0.7070489
vn 7.356752E-08 0.7071648 -0.7070489
vn 7.356752E-08 0.7071648 -0.7070489
vn 6.557881E-08 -0.7071648 -0.7070489
vn 6.810964E-08 -0.7071648 -0.7070489
vn 6.810964E-08 -0.7071648 -0.7070489
vn 6.557881E-08 -0.7071648 -0.7070489
vn 6.304798E-08 -0.7071648 -0.7070489
vn 6.304798E-08 -0.7071648 -0.7070489
vn -6.558208E-08 -0.7071068 0.7071068
vn -6.305104E-08 -0.7071068 0.7071068
vn -6.305104E-08 -0.7071068 0.7071068
vn -6.558208E-08 -0.7071068 0.7071068
vn -6.811312E-08 -0.7071068 0.7071068
vn -6.811312E-08 -0.7071068 0.7071068
vn 1 0 8.574739E-08
vn 1 0 9.528181E-08
vn 1 3.349531E-15 9.528181E-08
vn 1 0 8.574739E-08
vn 1 -1.674765E-15 8.574739E-08
vn 1 0 9.528181E-08
vn 1 0 8.574739E-08
vn 1 0 7.621298E-08
vn 1 -1.674765E-15 8.574739E-08
vn 1 0 8.574739E-08
vn 1 0 7.621298E-08
vn 1 0 7.621298E-08
vn -1 0 -8.77471E-08
vn -1 0 -9.759835E-08
vn -1 0 -8.77471E-08
vn -1 0 -9.759835E-08
vn -1 0 -8.77471E-08
vn -1 0 -8.77471E-08
vn -1 0 -8.77471E-08
vn -1 0 -7.789583E-08
vn -1 0 -8.77471E-08
vn -1 0 -7.789583E-08
vn -1 0 -8.77471E-08
vn -1 0 -8.77471E-08
vn -6.898874E-08 0.707108 0.7071056
vn -6.999932E-08 0.707108 0.7071056
vn -6.898874E-08 0.707108 0.7071056
vn -6.898874E-08 0.707108 0.7071056
vn -6.898874E-08 0.707108 0.7071056
vn -6.797816E-08 0.707108 0.7071056
vn 5.818966E-08 0.7079364 -0.7062762
vn 5.718026E-08 0.7079364 -0.7062762
vn 5.718026E-08 0.7079364 -0.7062762
vn 5.818966E-08 0.7079364 -0.7062762
vn 5.919905E-08 0.7079364 -0.7062762
vn 5.919905E-08 0.7079364 -0.7062762
vn 6.362016E-08 -0.707104 -0.7071096
vn 6.463075E-08 -0.707104 -0.7071096
vn 6.463075E-08 -0.707104 -0.7071096
vn 6.362016E-08 -0.707104 -0.7071096
vn 6.260958E-08 -0.707104 -0.7071096
vn 6.260958E-08 -0.707104 -0.7071096
vn -6.904297E-08 -0.7062746 0.7079381
vn -6.80312E-08 -0.7062746 0.7079381
vn -6.80312E-08 -0.7062746 0.7079381
vn -6.904297E-08 -0.7062746 0.7079381
vn -7.005474E-08 -0.7062746 0.7079381
vn -7.005474E-08 -0.7062746 0.7079381
vn -1 -4.007876E-08 -1.352111E-07
vn -1 4.738561E-08 -2.229325E-07
vn -1 4.738561E-08 -1.753408E-07
vn -1 -4.007876E-08 -1.352111E-07
vn -1 4.738561E-08 -1.753408E-07
vn -1 0 -7.131107E-08
vn -5.541174E-08 0.7071077 0.7071059
vn -5.541174E-08 0.7071077 0.7071059
vn -5.429869E-08 0.7071077 0.7071059
vn -5.541174E-08 0.7071077 0.7071059
vn -5.652479E-08 0.7071077 0.7071059
vn -5.541174E-08 0.7071077 0.7071059
vn 1 0 0
vn 1 0 0
vn 1 0 0
vn 1 0 0
vn 1 0 0
vn 1 0 0
vn -1 4.774689E-08 -2.228815E-07
vn -1 -4.007876E-08 -1.352111E-07
vn -1 0 -7.131107E-08
vn -1 4.774689E-08 -2.228815E-07
vn -1 2.636294E-07 -2.630112E-07
vn -1 7.162034E-08 -2.630112E-07
vn -1 -4.012957E-08 -1.352621E-07
vn -1 4.774689E-08 -2.228815E-07
vn -1 7.162034E-08 -2.630112E-07
vn -1 -4.012957E-08 -1.352621E-07
vn -1 0 0
vn -1 0 -7.13876E-08
vn -1 4.738561E-08 -2.229325E-07
vn -1 -4.012957E-08 -1.352621E-07
vn -1 0 -7.13876E-08
vn -1 4.738561E-08 -2.229325E-07
vn -1 2.623931E-07 -2.630112E-07
vn -1 4.738561E-08 -1.753408E-07
vn -6.572964E-08 -0.7067266 0.7074868
vn -6.572964E-08 -0.7067266 0.7074868
vn -6.461598E-08 -0.7067266 0.7074868
vn -6.572964E-08 -0.7067266 0.7074868
vn -6.684329E-08 -0.7067266 0.7074868
vn -6.572964E-08 -0.7067266 0.7074868
vn 6.056108E-08 -0.7071059 -0.7071077
vn 6.056108E-08 -0.7071059 -0.7071077
vn 6.167414E-08 -0.7071059 -0.7071077
vn 1 0 0
vn 1 0 0
vn 1 0 0
vn 1 0 0
vn 1 0 0
vn 1 0 0
vn 6.056108E-08 -0.7071059 -0.7071077
vn 5.944802E-08 -0.7071059 -0.7071077
vn 6.056108E-08 -0.7071059 -0.7071077
vn 1 0 0
vn 1 0 0
vn 1 0 0
vn 1 0 0
vn 1 0 0
vn 1 0 0
vn 1 0 0
vn 1 0 0
vn 1 0 0
vn 5.539087E-08 0.7074868 -0.7067266
vn 5.650332E-08 0.7074868 -0.7067266
vn 5.650332E-08 0.7074868 -0.7067266
vn 5.539087E-08 0.7074868 -0.7067266
vn 5.427842E-08 0.7074868 -0.7067266
vn 5.427842E-08 0.7074868 -0.7067266
vn 1 0 0
vn 1 0 0
vn 1 0 0
vn -5.665711E-08 0.7071068 0.7071068
vn -5.665711E-08 0.7071068 0.7071068
vn -5.665711E-08 0.7071068 0.7071068
vn -5.665711E-08 0.7071068 0.7071068
vn -5.665711E-08 0.7071068 0.7071068
vn -5.665711E-08 0.7071068 0.7071068
vn 6.694474E-08 0.7071648 -0.7070489
vn 6.694474E-08 0.7071648 -0.7070489
vn 6.694474E-08 0.7071648 -0.7070489
vn 6.694474E-08 0.7071648 -0.7070489
vn 6.694474E-08 0.7071648 -0.7070489
vn 6.694474E-08 0.7071648 -0.7070489
vn 6.180282E-08 -0.7071061 -0.7071075
vn 6.180283E-08 -0.7071061 -0.7071075
vn 6.180283E-08 -0.7071061 -0.7071075
vn 6.180282E-08 -0.7071061 -0.7071075
vn 6.180282E-08 -0.7071061 -0.7071075
vn 6.180282E-08 -0.7071061 -0.7071075
vn -6.180608E-08 -0.7070482 0.7071654
vn -6.180608E-08 -0.7070482 0.7071654
vn -6.180608E-08 -0.7070482 0.7071654
vn -6.180608E-08 -0.7070482 0.7071654
vn -6.180608E-08 -0.7070482 0.7071654
vn -6.180608E-08 -0.7070482 0.7071654
vn 1 0 0
vn 1 0 0
vn 1 0 0
vn 1 0 0
vn 1 0 0
vn 1 0 0
vn 1 0 0
vn 1 0 0
vn 1 0 0
vn 1 0 0
vn 1 0 0
vn 1 0 0
vt 0 0
vt 0 0
vt 0 0
vt 0 0
vt 0 0
vt 0 0
vt 0 0
vt 0 0
vt 0 0
vt 0 0
vt 0 0
vt 0 0
vt 0 0
vt 0 0
vt 0 0
vt 0 0
vt 0 0
vt 0 0
vt 0 0
vt 0 0
vt 0 0
vt 0 0
vt 0 0
vt 0 0
vt 0 0
vt 0 0
vt 0 0
vt 0 0
vt 0 0
vt 0 0
vt 0 0
vt 0 0
vt 0 0
vt 0 0
vt 0 0
vt 0 0
vt 0 0
vt 0 0
vt 0 0
vt 0 0
vt 0 0
vt 0 0
vt 0 0
vt 0 0
vt 0 0
vt 0 0
vt 0 0
vt 0 0
vt 0 0
vt 0 0
vt 0 0
vt 0 0
vt 0 0
vt 0 0
vt 0 0
vt 0 0
vt 0 0
vt 0 0
vt 0 0
vt 0 0
vt 0 0
vt 0 0
vt 0 0
vt 0 0
vt 0 0
vt 0 0
vt 0 0
vt 0 0
vt 0 0
vt 0 0
vt 0 0
vt 0 0
vt 0 0
vt 0 0
vt 0 0
vt 0 0
vt 0 0
vt 0 0
vt 0 0
vt 0 0
vt 0 0
vt 0 0
vt 0 0
vt 0 0
vt 0 0
vt 0 0
vt 0 0
vt 0 0
vt 0 0
vt 0 0
vt 0 0
vt 0 0
vt 0 0
vt 0 0
vt 0 0
vt 0 0
vt 0 0
vt 0 0
vt 0 0
vt 0 0
vt 0 0
vt 0 0
vt 0 0
vt 0 0
vt 0 0
vt 0 0
vt 0 0
vt 0 0
vt 0 0
vt 0 0
vt 0 0
vt 0 0
vt 0 0
vt 0 0
vt 0 0
vt 0 0
vt 0 0
vt 0 0
vt 0 0
vt 0 0
vt 0 0
vt 0 0
vt 0 0
vt 0 0
vt 0 0
vt 0 0
vt 0 0
vt 0 0
vt 0 0
vt 0 0
vt 0 0
vt 0 0
vt 0 0
vt 0 0
vt 0 0
vt 0 0
vt 0 0
vt 0 0
vt 0 0
vt 0 0
vt 0 0
vt 0 0
vt 0 0
vt 0 0
vt 0 0
vt 0 0
vt 0 0
vt 0 0
vt 0 0
vt 0 0
vt 0 0
vt 0 0
vt 0 0
vt 0 0
vt 0 0
vt 0 0
vt 0 0
vt 0 0
vt 0 0
vt 0 0
vt 0 0
vt 0 0
vt 0 0
vt 0 0
vt 0 0
vt 0 0
vt 0 0
vt 0 0
vt 0 0
vt 0 0
vt 0 0
vt 0 0
vt 0 0
vt 0 0
vt 0 0
vt 0 0
vt 0 0
vt 0 0
vt 0 0
vt 0 0
vt 0 0
vt 0 0
vt 0 0
vt 0 0
vt 0 0
vt 0 0
vt 0 0
vt 0 0
vt 0 0
vt 0 0
vt 0 0
vt 0 0
vt 0 0
vt 0 0
vt 0 0
vt 0 0
vt 0 0
vt 0 0
vt 0 0
vt 0 0
vt 0 0
vt 0 0
vt 0 0
vt 0 0
vt 0 0
vt 0 0
vt 0 0
vt 0 0
vt 0 0
vt 0 0
vt 0 0
vt 0 0
vt 0 0
vt 0 0
vt 0 0
vt 0 0
vt 0 0
vt 0 0
vt 0 0
vt 0 0
vt 0 0
vt 0 0
vt 0 0
vt 0 0
vt 0 0
vt 0 0
vt 0 0
vt 0 0
vt 0 0
vt 0 0
vt 0 0
vt 0 0
vt 0 0
vt 0 0
vt 0 0
vt 0 0
vt 0 0
vt 0 0
vt 0 0
vt 0 0
vt 0 0
vt 0 0
vt 0 0
vt 0 0
vt 0 0
vt 0 0
vt 0 0
vt 0 0
vt 0 0
vt 0 0
vt 0 0
vt 0 0
vt 0 0
vt 0 0
vt 0 0
vt 0 0
vt 0 0
vt 0 0
vt 0 0
vt 0 0
vt 0 0
vt 0 0
vt 0 0
vt 0 0
vt 0 0
vt 0 0
vt 0 0
vt 0 0
vt 0 0
vt 0 0
vt 0 0
vt 0 0
vt 0 0
vt 0 0
vt 0 0
vt 0 0
vt 0 0
vt 0 0
vt 0 0
vt 0 0
vt 0 0
vt 0 0
vt 0 0
vt 0 0
vt 0 0
vt 0 0
vt 0 0
vt 0 0
vt 0 0
vt 0 0
vt 0 0
vt 0 0
vt 0 0
vt 0 0
vt 0 0
vt 0 0
vt 0 0
vt 0 0
vt 0 0
vt 0 0
vt 0 0
vt 0 0
vt 0 0
vt 0 0
vt 0 0
vt 0 0
vt 0 0
vt 0 0
vt 0 0
vt 0 0
vt 0 0
vt 0 0
vt 0 0
vt 0 0
vt 0 0
vt 0 0
vt 0 0
vt 0 0
vt 0 0
vt 0 0
vt 0 0
vt 0 0
vt 0 0
vt 0 0
vt 0 0
vt 0 0
vt 0 0
vt 0 0
vt 0 0
vt 0 0
vt 0 0
vt 0 0
vt 0 0
vt 0 0
vt 0 0
vt 0 0
vt 0 0
vt 0 0
vt 0 0
vt 0 0
vt 0 0
vt 0 0
vt 0 0
vt 0 0
vt 0 0
vt 0 0
vt 0 0
vt 0 0
vt 0 0
vt 0 0
vt 0 0
vt 0 0
vt 0 0
vt 0 0
vt 0 0
vt 0 0
vt 0 0
vt 0 0
vt 0 0
vt 0 0
vt 0 0
vt 0 0
vt 0 0
vt 0 0
vt 0 0
vt 0 0
vt 0 0
vt 0 0
vt 0 0
vt 0 0
vt 0 0
vt 0 0
vt 0 0
vt 0 0
vt 0 0
vt 0 0
vt 0 0
vt 0 0
vt 0 0
vt 0 0
vt 0 0
vt 0 0
vt 0 0
vt 0 0
vt 0 0
vt 0 0
vt 0 0
vt 0 0
vt 0 0
vt 0 0
vt 0 0
vt 0 0
vt 0 0
vt 0 0
vt 0 0
vt 0 0
vt 0 0
vt 0 0
vt 0 0
vt 0 0
vt 0 0
vt 0 0
vt 0 0
vt 0 0
vt 0 0
vt 0 0
vt 0 0
vt 0 0
vt 0 0
vt 0 0
vt 0 0
vt 0 0
vt 0 0
vt 0 0
vt 0 0
vt 0 0
vt 0 0
vt 0 0
vt 0 0
vt 0 0
vt 0 0
vt 0 0
vt 0 0
vt 0 0
vt 0 0
vt 0 0
vt 0 0
vt 0 0
vt 0 0
vt 0 0
vt 0 0
vt 0 0
vt 0 0
vt 0 0
vt 0 0
vt 0 0
vt 0 0
vt 0 0
vt 0 0
vt 0 0
vt 0 0
vt 0 0
vt 0 0
vt 0 0
vt 0 0
vt 0 0
vt 0 0
vt 0 0
vt 0 0
vt 0 0
vt 0 0
vt 0 0
vt 0 0
vt 0 0
vt 0 0
vt 0 0
vt 0 0
vt 0 0
vt 0 0
vt 0 0
vt 0 0
vt 0 0
vt 0 0
vt 0 0
vt 0 0
vt 0 0
vt 0 0
vt 0 0
vt 0 0
vt 0 0
vt 0 0
vt 0 0
vt 0 0
vt 0 0
vt 0 0
vt 0 0
vt 0 0
vt 0 0
vt 0 0
vt 0 0
vt 0 0
vt 0 0
vt 0 0
vt 0 0
vt 0 0
vt 0 0
vt 0 0
vt 0 0
vt 0 0
vt 0 0
vt 0 0
vt 0 0
vt 0 0
vt 0 0
vt 0 0
vt 0 0
vt 0 0
vt 0 0
vt 0 0
vt 0 0
vt 0 0
vt 0 0
vt 0 0
vt 0 0
vt 0 0
vt 0 0
vt 0 0
vt 0 0
vt 0 0
vt 0 0
vt 0 0
vt 0 0
vt 0 0
vt 0 0
vt 0 0
vt 0 0
vt 0 0
vt 0 0
vt 0 0
vt 0 0
vt 0 0
vt 0 0
vt 0 0
vt 0 0
vt 0 0
vt 0 0
vt 0 0
vt 0 0
vt 0 0
vt 0 0
vt 0 0
vt 0 0
vt 0 0
vt 0 0
vt 0 0
vt 0 0
vt 0 0
vt 0 0
vt 0 0
vt 0 0
vt 0 0
vt 0 0
vt 0 0
vt 0 0
vt 0 0
vt 0 0
vt 0 0
vt 0 0
vt 0 0
vt 0 0
vt 0 0
vt 0 0
vt 0 0
vt 0 0
vt 0 0
vt 0 0
vt 0 0
vt 0 0
vt 0 0
vt 0 0
vt 0 0
vt 0 0
vt 0 0
vt 0 0
vt 0 0
vt 0 0
vt 0 0
vt 0 0
vt 0 0
vt 0 0
vt 0 0
vt 0 0
vt 0 0
vt 0 0
vt 0 0
vt 0 0
usemtl Material
f 3/3/3 2/2/2 1/1/1
f 6/6/6 5/5/5 4/4/4
f 9/9/9 8/8/8 7/7/7
f 12/12/12 11/11/11 10/10/10
f 15/15/15 14/14/14 13/13/13
f 18/18/18 17/17/17 16/16/16
f 21/21/21 20/20/20 19/19/19
f 24/24/24 23/23/23 22/22/22
f 27/27/27 26/26/26 25/25/25
f 30/30/30 29/29/29 28/28/28
f 33/33/33 32/32/32 31/31/31
f 36/36/36 35/35/35 34/34/34
f 39/39/39 38/38/38 37/37/37
f 42/42/42 41/41/41 40/40/40
f 45/45/45 44/44/44 43/43/43
f 48/48/48 47/47/47 46/46/46
f 51/51/51 50/50/50 49/49/49
f 54/54/54 53/53/53 52/52/52
f 57/57/57 56/56/56 55/55/55
f 60/60/60 59/59/59 58/58/58
f 63/63/63 62/62/62 61/61/61
f 66/66/66 65/65/65 64/64/64
f 69/69/69 68/68/68 67/67/67
f 72/72/72 71/71/71 70/70/70
f 75/75/75 74/74/74 73/73/73
f 78/78/78 77/77/77 76/76/76
f 81/81/81 80/80/80 79/79/79
f 84/84/84 83/83/83 82/82/82
f 87/87/87 86/86/86 85/85/85
f 90/90/90 89/89/89 88/88/88
f 93/93/93 92/92/92 91/91/91
f 96/96/96 95/95/95 94/94/94
f 99/99/99 98/98/98 97/97/97
f 102/102/102 101/101/101 100/100/100
f 105/105/105 104/104/104 103/103/103
f 108/108/108 107/107/107 106/106/106
f 111/111/111 110/110/110 109/109/109
f 114/114/114 113/113/113 112/112/112
f 117/117/117 116/116/116 115/115/115
f 120/120/120 119/119/119 118/118/118
f 123/123/123 122/122/122 121/121/121
f 126/126/126 125/125/125 124/124/124
f 129/129/129 128/128/128 127/127/127
f 132/132/132 131/131/131 130/130/130
f 135/135/135 134/134/134 133/133/133
f 138/138/138 137/137/137 136/136/136
f 141/141/141 140/140/140 139/139/139
f 144/144/144 143/143/143 142/142/142
f 147/147/147 146/146/146 145/145/145
f 150/150/150 149/149/149 148/148/148
f 153/153/153 152/152/152 151/151/151
f 156/156/156 155/155/155 154/154/154
f 159/159/159 158/158/158 157/157/157
f 162/162/162 161/161/161 160/160/160
f 165/165/165 164/164/164 163/163/163
f 168/168/168 167/167/167 166/166/166
f 171/171/171 170/170/170 169/169/169
f 174/174/174 173/173/173 172/172/172
f 177/177/177 176/176/176 175/175/175
f 180/180/180 179/179/179 178/178/178
f 183/183/183 182/182/182 181/181/181
f 186/186/186 185/185/185 184/184/184
f 189/189/189 188/188/188 187/187/187
f 192/192/192 191/191/191 190/190/190
f 195/195/195 194/194/194 193/193/193
f 198/198/198 197/197/197 196/196/196
f 201/201/201 200/200/200 199/199/199
f 204/204/204 203/203/203 202/202/202
f 207/207/207 206/206/206 205/205/205
f 210/210/210 209/209/209 208/208/208
f 213/213/213 212/212/212 211/211/211
f 216/216/216 215/215/215 214/214/214
f 219/219/219 218/218/218 217/217/217
f 222/222/222 221/221/221 220/220/220
f 225/225/225 224/224/224 223/223/223
f 228/228/228 227/227/227 226/226/226
f 231/231/231 230/230/230 229/229/229
f 234/234/234 233/233/233 232/232/232
f 237/237/237 236/236/236 235/235/235
f 240/240/240 239/239/239 238/238/238
f 243/243/243 242/242/242 241/241/241
f 246/246/246 245/245/245 244/244/244
f 249/249/249 248/248/248 247/247/247
f 252/252/252 251/251/251 250/250/250
f 255/255/255 254/254/254 253/253/253
f 258/258/258 257/257/257 256/256/256
f 261/261/261 260/260/260 259/259/259
f 264/264/264 263/263/263 262/262/262
f 267/267/267 266/266/266 265/265/265
f 270/270/270 269/269/269 268/268/268
f 273/273/273 272/272/272 271/271/271
f 276/276/276 275/275/275 274/274/274
f 279/279/279 278/278/278 277/277/277
f 282/282/282 281/281/281 280/280/280
f 285/285/285 284/284/284 283/283/283
f 288/288/288 287/287/287 286/286/286
f 291/291/291 290/290/290 289/289/289
f 294/294/294 293/293/293 292/292/292
f 297/297/297 296/296/296 295/295/295
f 300/300/300 299/299/299 298/298/298
f 303/303/303 302/302/302 301/301/301
f 306/306/306 305/305/305 304/304/304
f 309/309/309 308/308/308 307/307/307
f 312/312/312 311/311/311 310/310/310
f 315/315/315 314/314/314 313/313/313
f 318/318/318 317/317/317 316/316/316
f 321/321/321 320/320/320 319/319/319
f 324/324/324 323/323/323 322/322/322
f 327/327/327 326/326/326 325/325/325
f 330/330/330 329/329/329 328/328/328
f 333/333/333 332/332/332 331/331/331
f 336/336/336 335/335/335 334/334/334
f 339/339/339 338/338/338 337/337/337
f 342/342/342 341/341/341 340/340/340
f 345/345/345 344/344/344 343/343/343
f 348/348/348 347/347/347 346/346/346
f 351/351/351 350/350/350 349/349/349
f 354/354/354 353/353/353 352/352/352
f 357/357/357 356/356/356 355/355/355
f 360/360/360 359/359/359 358/358/358
f 363/363/363 362/362/362 361/361/361
f 366/366/366 365/365/365 364/364/364
f 369/369/369 368/368/368 367/367/367
f 372/372/372 371/371/371 370/370/370
f 375/375/375 374/374/374 373/373/373
f 378/378/378 377/377/377 376/376/376
f 381/381/381 380/380/380 379/379/379
f 384/384/384 383/383/383 382/382/382
f 387/387/387 386/386/386 385/385/385
f 390/390/390 389/389/389 388/388/388
f 393/393/393 392/392/392 391/391/391
f 396/396/396 395/395/395 394/394/394
f 399/399/399 398/398/398 397/397/397
f 402/402/402 401/401/401 400/400/400
f 405/405/405 404/404/404 403/403/403
f 408/408/408 407/407/407 406/406/406
f 411/411/411 410/410/410 409/409/409
f 414/414/414 413/413/413 412/412/412
f 417/417/417 416/416/416 415/415/415
f 420/420/420 419/419/419 418/418/418
f 423/423/423 422/422/422 421/421/421
f 426/426/426 425/425/425 424/424/424
f 429/429/429 428/428/428 427/427/427
f 432/432/432 431/431/431 430/430/430
f 435/435/435 434/434/434 433/433/433
f 438/438/438 437/437/437 436/436/436
f 441/441/441 440/440/440 439/439/439
f 444/444/444 443/443/443 442/442/442
f 447/447/447 446/446/446 445/445/445
f 450/450/450 449/449/449 448/448/448
f 453/453/453 452/452/452 451/451/451
f 456/456/456 455/455/455 454/454/454
f 459/459/459 458/458/458 457/457/457
f 462/462/462 461/461/461 460/460/460
f 465/465/465 464/464/464 463/463/463
f 468/468/468 467/467/467 466/466/466
f 471/471/471 470/470/470 469/469/469
f 474/474/474 473/473/473 472/472/472
f 477/477/477 476/476/476 475/475/475
f 480/480/480 479/479/479 478/478/478
f 483/483/483 482/482/482 481/481/481
f 486/486/486 485/485/485 484/484/484
f 489/489/489 488/488/488 487/487/487
f 492/492/492 491/491/491 490/490/490
f 495/495/495 494/494/494 493/493/493
f 498/498/498 497/497/497 496/496/496
f 501/501/501 500/500/500 499/499/499
f 504/504/504 503/503/503 502/502/502
f 507/507/507 506/506/506 505/505/505
f 510/510/510 509/509/509 508/508/508
f 513/513/513 512/512/512 511/511/511
f 516/516/516 515/515/515 514/514/514
f 519/519/519 518/518/518 517/517/517
f 522/522/522 521/521/521 520/520/520
f 525/525/525 524/524/524 523/523/523
f 528/528/528 527/527/527 526/526/526
f 531/531/531 530/530/530 529/529/529
f 534/534/534 533/533/533 532/532/532
f 537/537/537 536/536/536 535/535/535
f 540/540/540 539/539/539 538/538/538
f 543/543/543 542/542/542 541/541/541
f 546/546/546 545/545/545 544/544/544
f 549/549/549 548/548/548 547/547/547
f 552/552/552 551/551/551 550/550/550
f 555/555/555 554/554/554 553/553/553
f 558/558/558 557/557/557 556/556/556
f 561/561/561 560/560/560 559/559/559
f 564/564/564 563/563/563 562/562/562
f 567/567/567 566/566/566 565/565/565
f 570/570/570 569/569/569 568/568/568
f 573/573/573 572/572/572 571/571/571
f 576/576/576 575/575/575 574/574/574
